<svg version="1.2" xmlns="http://www.w3.org/2000/svg" viewBox="0 0 195 198" width="195" height="198"><defs><clipPath clipPathUnits="userSpaceOnUse" id="cp1"><path d="m1.33 3.33h192v192h-192z"/></clipPath><clipPath clipPathUnits="userSpaceOnUse" id="cp2"><path d="m33.5 35.21h129v129h-129z"/></clipPath><clipPath clipPathUnits="userSpaceOnUse" id="cp3"><path d="m61.36 50h71.25v97h-71.25z"/></clipPath><clipPath clipPathUnits="userSpaceOnUse" id="cp4"><path d="m51 58h75v90h-75z"/></clipPath><clipPath clipPathUnits="userSpaceOnUse" id="cp5"><path d="m51.31 60.87l51.82-15.19 29.34 100.03-51.82 15.2z"/></clipPath><clipPath clipPathUnits="userSpaceOnUse" id="cp6"><path d="m103.33 45.62l-51.81 15.19 29.34 100.04 51.81-15.2z"/></clipPath><clipPath clipPathUnits="userSpaceOnUse" id="cp7"><path d="m61 63h5v3h-5z"/></clipPath><clipPath clipPathUnits="userSpaceOnUse" id="cp8"><path d="m51.31 60.87l51.82-15.19 29.34 100.03-51.82 15.2z"/></clipPath><clipPath clipPathUnits="userSpaceOnUse" id="cp9"><path d="m103.33 45.62l-51.81 15.19 29.34 100.04 51.81-15.2z"/></clipPath><clipPath clipPathUnits="userSpaceOnUse" id="cp10"><path d="m65 64h3v3h-3z"/></clipPath><clipPath clipPathUnits="userSpaceOnUse" id="cp11"><path d="m51.31 60.87l51.82-15.19 29.34 100.03-51.82 15.2z"/></clipPath><clipPath clipPathUnits="userSpaceOnUse" id="cp12"><path d="m103.33 45.62l-51.81 15.19 29.34 100.04 51.81-15.2z"/></clipPath><clipPath clipPathUnits="userSpaceOnUse" id="cp13"><path d="m93 109h6v3h-6z"/></clipPath><clipPath clipPathUnits="userSpaceOnUse" id="cp14"><path d="m51.31 60.87l51.82-15.19 29.34 100.03-51.82 15.2z"/></clipPath><clipPath clipPathUnits="userSpaceOnUse" id="cp15"><path d="m103.33 45.62l-51.81 15.19 29.34 100.04 51.81-15.2z"/></clipPath><clipPath clipPathUnits="userSpaceOnUse" id="cp16"><path d="m98 110h4v2h-4z"/></clipPath><clipPath clipPathUnits="userSpaceOnUse" id="cp17"><path d="m51.31 60.87l51.82-15.19 29.34 100.03-51.82 15.2z"/></clipPath><clipPath clipPathUnits="userSpaceOnUse" id="cp18"><path d="m103.33 45.62l-51.81 15.19 29.34 100.04 51.81-15.2z"/></clipPath><clipPath clipPathUnits="userSpaceOnUse" id="cp19"><path d="m94 116h8v4h-8z"/></clipPath><clipPath clipPathUnits="userSpaceOnUse" id="cp20"><path d="m51.31 60.87l51.82-15.19 29.34 100.03-51.82 15.2z"/></clipPath><clipPath clipPathUnits="userSpaceOnUse" id="cp21"><path d="m103.33 45.62l-51.81 15.19 29.34 100.04 51.81-15.2z"/></clipPath><clipPath clipPathUnits="userSpaceOnUse" id="cp22"><path d="m101 129h9v2h-9z"/></clipPath><clipPath clipPathUnits="userSpaceOnUse" id="cp23"><path d="m51.31 60.87l51.82-15.19 29.34 100.03-51.82 15.2z"/></clipPath><clipPath clipPathUnits="userSpaceOnUse" id="cp24"><path d="m103.33 45.62l-51.81 15.19 29.34 100.04 51.81-15.2z"/></clipPath><clipPath clipPathUnits="userSpaceOnUse" id="cp25"><path d="m62 66h3v2h-3z"/></clipPath><clipPath clipPathUnits="userSpaceOnUse" id="cp26"><path d="m51.31 60.87l51.82-15.19 29.34 100.03-51.82 15.2z"/></clipPath><clipPath clipPathUnits="userSpaceOnUse" id="cp27"><path d="m103.33 45.62l-51.81 15.19 29.34 100.04 51.81-15.2z"/></clipPath><clipPath clipPathUnits="userSpaceOnUse" id="cp28"><path d="m116 119h4v7h-4z"/></clipPath><clipPath clipPathUnits="userSpaceOnUse" id="cp29"><path d="m51.31 60.87l51.82-15.19 29.34 100.03-51.82 15.2z"/></clipPath><clipPath clipPathUnits="userSpaceOnUse" id="cp30"><path d="m103.33 45.62l-51.81 15.19 29.34 100.04 51.81-15.2z"/></clipPath><clipPath clipPathUnits="userSpaceOnUse" id="cp31"><path d="m119 116h2v3h-2z"/></clipPath><clipPath clipPathUnits="userSpaceOnUse" id="cp32"><path d="m51.31 60.87l51.82-15.19 29.34 100.03-51.82 15.2z"/></clipPath><clipPath clipPathUnits="userSpaceOnUse" id="cp33"><path d="m103.33 45.62l-51.81 15.19 29.34 100.04 51.81-15.2z"/></clipPath><clipPath clipPathUnits="userSpaceOnUse" id="cp34"><path d="m80 90h11v2h-11z"/></clipPath><clipPath clipPathUnits="userSpaceOnUse" id="cp35"><path d="m51.31 60.87l51.82-15.19 29.34 100.03-51.82 15.2z"/></clipPath><clipPath clipPathUnits="userSpaceOnUse" id="cp36"><path d="m103.33 45.62l-51.81 15.19 29.34 100.04 51.81-15.2z"/></clipPath></defs><style>.a{fill:#fff}.b{fill:#f8f5f2}.c{fill:#3e2015}.d{fill:#6f7456}</style><path fill-rule="evenodd" class="a" d="m-127.5-125.5h450v450h-450z"/><path fill-rule="evenodd" class="b" d="m-127.5-129.5h450v450h-450z"/><g clip-path="url(#cp1)"><path class="c" d="m97.5 195.7c-53 0-96.2-43.2-96.2-96.2 0-53 43.2-96.2 96.2-96.2 53 0 96.2 43.2 96.2 96.2 0 53-43.2 96.2-96.2 96.2zm0-190.9c-52.3 0-94.8 42.4-94.8 94.7 0 52.2 42.5 94.7 94.8 94.7 52.2 0 94.7-42.5 94.7-94.7 0-52.3-42.5-94.7-94.7-94.7z"/></g><g clip-path="url(#cp2)"><path class="c" d="m59.1 150.3q-0.2 0.3-0.7 0.3c-0.1 0-0.3-0.1-0.5-0.2q-2.1-1.7-4.1-3.5c-0.4-0.4-0.4-0.9-0.1-1.3 0.4-0.3 0.9-0.4 1.3 0q1.9 1.8 4 3.4c0.4 0.4 0.4 0.9 0.1 1.3zm3-104.1c-1.4 1-2.9 2-4.3 3.2-0.4 0.3-0.5 0.8-0.2 1.2q0.3 0.3 0.7 0.3c0.2 0 0.4-0.1 0.6-0.2 1.4-1.1 2.8-2.1 4.3-3.1 0.4-0.3 0.5-0.8 0.2-1.2-0.3-0.4-0.9-0.5-1.3-0.2zm-11 9.3q-1.9 2-3.6 4.1c-0.3 0.4-0.2 1 0.2 1.3 0.2 0.1 0.3 0.1 0.5 0.1 0.3 0 0.6-0.1 0.8-0.3q1.6-2.1 3.4-4c0.3-0.3 0.3-0.9 0-1.2-0.4-0.4-1-0.3-1.3 0zm23.9-16c-1.7 0.6-3.4 1.4-5 2.1-0.4 0.2-0.6 0.8-0.4 1.2 0.1 0.3 0.4 0.5 0.8 0.5 0.1 0 0.2 0 0.4-0.1q2.4-1.2 4.8-2.1c0.5-0.2 0.7-0.7 0.5-1.2-0.2-0.3-0.7-0.6-1.1-0.4zm85.4 51.5c0.1 0.4 0.4 0.8 0.9 0.8q0 0 0.1 0c0.5-0.1 0.8-0.5 0.7-1-0.2-1.8-0.5-3.6-0.9-5.4-0.1-0.4-0.6-0.7-1.1-0.6-0.5 0.1-0.8 0.5-0.7 1 0.4 1.7 0.7 3.5 1 5.2zm-89.5 65.5c-1.6-0.8-3.1-1.6-4.6-2.5-0.4-0.2-1-0.1-1.2 0.3-0.3 0.5-0.1 1 0.3 1.2 1.5 1 3.2 1.8 4.8 2.6 0.1 0.1 0.2 0.1 0.4 0.1 0.3 0 0.6-0.2 0.8-0.5 0.1-0.4 0-1-0.5-1.2zm18.1-120.6c-1.8 0.2-3.6 0.5-5.4 0.9-0.4 0.1-0.7 0.6-0.6 1.1 0.1 0.4 0.4 0.7 0.8 0.7q0.1 0 0.2-0.1c1.7-0.4 3.5-0.7 5.2-0.9 0.5-0.1 0.8-0.5 0.7-1 0-0.5-0.5-0.8-0.9-0.7zm-4.8 125.3q-2.6-0.6-5.1-1.4c-0.5-0.1-1 0.1-1.1 0.6-0.2 0.4 0.1 0.9 0.5 1.1 1.8 0.5 3.5 1 5.3 1.4 0.1 0 0.1 0 0.2 0 0.4 0 0.8-0.3 0.9-0.7 0.1-0.5-0.2-0.9-0.7-1zm-48.3-52.5c-0.1-0.5-0.5-0.8-1-0.7-0.5 0.1-0.8 0.5-0.7 1 0.2 1.8 0.6 3.6 1 5.3 0.1 0.5 0.4 0.7 0.8 0.7q0.1 0 0.2 0c0.5-0.1 0.8-0.6 0.7-1.1-0.4-1.7-0.8-3.4-1-5.2zm-0.6-8.8v-0.1c0-1.7 0-3.5 0.2-5.1 0-0.5-0.3-1-0.8-1-0.5 0-1 0.3-1 0.8q-0.2 2.7-0.2 5.3v0.1c0 0.5 0.4 0.9 0.9 0.9 0.5 0 0.9-0.4 0.9-0.9zm0.5-13.3c0 0 0.1 0 0.2 0 0.4 0 0.7-0.2 0.8-0.7q0.6-2.5 1.4-5.1c0.1-0.4-0.1-0.9-0.6-1.1-0.4-0.1-0.9 0.1-1.1 0.6-0.5 1.7-1 3.5-1.4 5.3-0.1 0.4 0.2 0.9 0.7 1zm3.6 35.7c-0.1-0.4-0.6-0.6-1.1-0.4-0.5 0.1-0.7 0.6-0.5 1.1 0.6 1.7 1.4 3.3 2.2 5 0.1 0.3 0.4 0.4 0.8 0.4 0.1 0 0.2 0 0.4-0.1 0.4-0.2 0.6-0.7 0.4-1.1q-1.3-2.4-2.2-4.9zm4.2-55.5c-0.4-0.3-0.9-0.1-1.2 0.3-0.9 1.6-1.7 3.2-2.5 4.8-0.3 0.4-0.1 1 0.4 1.2 0.1 0 0.2 0 0.4 0 0.3 0 0.6-0.1 0.8-0.5 0.7-1.5 1.6-3.1 2.5-4.6 0.2-0.4 0.1-1-0.4-1.2zm2.3 68c-0.3-0.4-0.8-0.5-1.3-0.2-0.3 0.3-0.5 0.8-0.2 1.2 1 1.5 2.1 3 3.2 4.4q0.3 0.3 0.7 0.3c0.2 0 0.4-0.1 0.6-0.2 0.4-0.3 0.4-0.8 0.1-1.2q-1.6-2.1-3.1-4.3zm91.5 14.2c-1.4 1.1-2.9 2.1-4.3 3.1-0.4 0.3-0.5 0.8-0.3 1.3 0.2 0.2 0.5 0.3 0.8 0.3q0.3 0 0.5-0.1c1.5-1 2.9-2.1 4.3-3.2 0.4-0.3 0.5-0.9 0.2-1.2-0.3-0.5-0.9-0.5-1.2-0.2zm18.6-22.3c-0.4-0.2-1-0.1-1.2 0.4-0.8 1.6-1.6 3.1-2.5 4.7-0.2 0.4-0.1 0.9 0.3 1.2q0.2 0.1 0.5 0.1c0.3 0 0.6-0.2 0.8-0.5 0.9-1.5 1.8-3.1 2.5-4.8 0.2-0.4 0-0.9-0.4-1.1zm-7.4 12.2c-0.4-0.3-1-0.3-1.3 0.1q-1.6 2.1-3.4 4c-0.3 0.4-0.3 0.9 0 1.2q0.3 0.3 0.6 0.3 0.4 0 0.6-0.3 1.9-2 3.6-4.1c0.3-0.4 0.2-0.9-0.1-1.2zm0.1-79.3c-0.3-0.4-0.9-0.5-1.3-0.2-0.3 0.3-0.4 0.9-0.1 1.2 1.1 1.4 2.1 2.9 3.1 4.3 0.2 0.3 0.5 0.4 0.8 0.4q0.3 0 0.5-0.1c0.4-0.3 0.5-0.8 0.2-1.3-1-1.5-2.1-2.9-3.2-4.3zm9.8 17.2c-0.6-1.7-1.4-3.4-2.1-5-0.2-0.4-0.8-0.6-1.2-0.4-0.4 0.2-0.6 0.7-0.4 1.1q1.2 2.4 2.1 4.9c0.1 0.4 0.4 0.6 0.8 0.6q0.1 0 0.3-0.1c0.5-0.2 0.7-0.7 0.5-1.1zm2 36.3c-0.5-0.1-1 0.2-1.1 0.7q-0.5 2.6-1.3 5.1c-0.2 0.5 0.1 1 0.5 1.1 0.1 0.1 0.2 0.1 0.3 0.1 0.4 0 0.7-0.3 0.8-0.7 0.6-1.7 1.1-3.4 1.5-5.2 0.1-0.5-0.2-1-0.7-1.1zm1.4-14.1c-0.5 0-0.9 0.4-0.9 0.8q0 2.7-0.2 5.3c0 0.5 0.3 0.9 0.8 0.9 0.1 0 0.1 0 0.1 0 0.4 0 0.8-0.3 0.9-0.8q0.2-2.7 0.2-5.4c0-0.5-0.4-0.8-0.9-0.8zm-44.1-60.8q-2.6-0.8-5.3-1.4c-0.4-0.1-0.9 0.2-1 0.7-0.1 0.5 0.1 1 0.6 1.1q2.6 0.5 5.1 1.3c0.2 0.1 0.2 0.1 0.3 0.1 0.4 0 0.7-0.3 0.9-0.6 0.1-0.5-0.2-1-0.6-1.2zm-5.6 122.9c-1.7 0.4-3.5 0.8-5.2 1-0.5 0.1-0.8 0.5-0.7 1 0 0.4 0.4 0.8 0.9 0.8q0 0 0.1 0c1.8-0.3 3.6-0.6 5.4-1 0.4-0.1 0.7-0.6 0.6-1.1-0.2-0.5-0.6-0.8-1.1-0.7zm-14 1.6h-0.1c-1.7 0-3.5 0-5.2-0.2-0.5 0-0.9 0.3-0.9 0.8-0.1 0.5 0.3 0.9 0.8 1q2.6 0.2 5.3 0.2h0.1c0.5 0 0.9-0.4 0.9-0.9 0-0.5-0.4-0.9-0.9-0.9zm5.4-127.3q-2.7-0.2-5.5-0.2h-0.1c-0.5 0-0.9 0.4-0.9 0.9 0 0.5 0.4 0.9 0.9 0.9h0.2q2.6 0 5.3 0.2c0 0 0 0 0 0 0.5 0 0.9-0.4 0.9-0.8 0-0.5-0.3-0.9-0.8-1zm21.9 121.1q-2.4 1.2-4.9 2.1c-0.5 0.1-0.7 0.6-0.5 1.1 0.1 0.4 0.5 0.6 0.8 0.6q0.2 0 0.3-0.1c1.7-0.6 3.4-1.4 5-2.2 0.4-0.2 0.6-0.7 0.4-1.1-0.2-0.4-0.7-0.6-1.1-0.4zm12.9-107.2c-0.3-0.3-0.9-0.2-1.2 0.2-0.3 0.4-0.2 0.9 0.2 1.2q2 1.6 3.9 3.5 0.3 0.2 0.6 0.2 0.4 0 0.7-0.3c0.3-0.3 0.3-0.9-0.1-1.2-1.3-1.2-2.6-2.5-4.1-3.6zm-7.4-5.1c-1.6-0.9-3.2-1.8-4.8-2.6-0.5-0.2-1 0-1.2 0.4-0.2 0.5 0 1 0.4 1.2 1.6 0.8 3.2 1.6 4.7 2.5q0.2 0.1 0.4 0.1c0.4 0 0.6-0.1 0.8-0.4 0.2-0.5 0.1-1-0.3-1.2z"/></g><path fill-rule="evenodd" class="c" d="m128.5 55.2c0.1 1.5-0.9 2.8-1.7 4.1 0.5-1.3 1-2.7 1.7-4.1z"/><path fill-rule="evenodd" class="c" d="m126.3 62.4c0.1 0.2 0.3 0.2 0.3 0.4-0.6 0.2-1.5 0.7-1.9 0.4 2-1 2.4-3.3 3.7-4.6 0 1.2-1.5 2.6-2.1 3.8z"/><path fill-rule="evenodd" class="c" d="m126.7 58.7c-1 0.4-1.9 0.2-2.8 0.6 0.3-0.3 0.3-0.6 0.7-0.9 0.2 0 0.1 0.2 0.1 0.3 0.7 0.2 1.4-0.7 2 0z"/><path fill-rule="evenodd" class="c" d="m128.6 61.1c-0.4 0.8-1 1.7-1.7 2.5 0.3-0.8 0.9-1.9 1.7-2.5z"/><path fill-rule="evenodd" class="c" d="m126.4 59.8c0 0.5-0.6 0.9-0.7 1.3 0.1 0.2 0.4 0.2 0.3 0.5-0.2 0.1-0.5 0-0.8 0.1-0.3 0.1-0.4 0.5-0.6 0.6 0-0.2 0.2-0.3 0.2-0.5-1-0.2-2.1 0.8-3.1 0.7 1.6-0.9 3.7-0.7 4.7-2.7z"/><path fill-rule="evenodd" class="c" d="m125.2 59.9c-0.7 0.2-1.3 0.3-2 0.5 0.5-0.4 1.4-0.7 2-0.5z"/><path fill-rule="evenodd" class="c" d="m126.6 63.8c0.1 0.3-0.1 0.5-0.4 0.7-0.1-0.2 0.2-0.4 0.4-0.7z"/><path fill-rule="evenodd" class="c" d="m122.7 60.6c-0.1 0.3-0.6 0.3-0.9 0.4 0-0.3 0.7-0.4 0.9-0.4z"/><path fill-rule="evenodd" class="c" d="m124.3 63.4c-0.7 0.5-1.6 0.6-2.4 1 0.7-0.4 1.6-1 2.4-1z"/><path fill-rule="evenodd" class="c" d="m121.1 65.3q0 0.1 0.1 0.2-0.1 0.1-0.3 0.1c-0.1-0.1 0-0.2 0.2-0.3z"/><path fill-rule="evenodd" class="c" d="m124.2 71c-0.1 0.6-0.7 1.4-1 1.8 0.1-0.6 0.5-1.2 1-1.8z"/><path fill-rule="evenodd" class="c" d="m117.9 65.1c0.1 0.2-0.2 0.4-0.3 0.5-0.2-0.1 0.1-0.4 0.3-0.5z"/><path fill-rule="evenodd" class="c" d="m112.6 80.2c0 0.3-0.4 0.2-0.5 0.3 0-0.2 0.4-0.3 0.5-0.3z"/><path fill-rule="evenodd" class="c" d="m112.5 81.3c-0.1 0.3-0.6 0.3-0.9 0.5 0.2-0.4 0.7-0.3 0.9-0.5z"/><path fill-rule="evenodd" class="c" d="m109 78q0.1 0 0.1 0.1c-0.1 0.3-0.6 0.6-0.9 0.8 0.1-0.3 0.5-0.7 0.8-0.9z"/><path fill-rule="evenodd" class="c" d="m109.4 79c-0.1 0.4-0.6 0.6-0.9 0.9-0.1-0.3 0.6-0.7 0.9-0.9z"/><path fill-rule="evenodd" class="c" d="m110 82.4c0 0.3-0.4 0.3-0.6 0.4 0-0.2 0.4-0.3 0.6-0.4z"/><path fill-rule="evenodd" class="c" d="m107.9 80.3c-0.1 0.7-0.8 1.1-1.4 1.5 0.1-0.6 0.9-1 1.4-1.5z"/><path fill-rule="evenodd" class="c" d="m107.1 82.6q0 0.1 0.1 0.2c-0.1 0.1-0.2 0.1-0.3 0q0.1-0.1 0.2-0.2z"/><path fill-rule="evenodd" class="c" d="m105.9 88.2c0 0.2-0.3 0.1-0.4 0.3 0-0.2 0.3-0.2 0.4-0.3z"/><path fill-rule="evenodd" class="c" d="m104.8 87.6c0.1 0.1-0.3 0.4-0.4 0.2 0.1 0 0.3-0.1 0.4-0.2z"/><path fill-rule="evenodd" class="c" d="m105.1 88.6c-0.2 0.4-1.1 0.8-1.5 0.8 0.5-0.2 1-0.5 1.5-0.8z"/><path fill-rule="evenodd" class="c" d="m103.6 89.5c0 0.1-0.3 0.2-0.4 0.2 0-0.1 0.3-0.2 0.4-0.2z"/><path fill-rule="evenodd" class="c" d="m102.4 88.9c0.2 0.2-0.1 0.4-0.2 0.4-0.2-0.2 0.1-0.4 0.2-0.4z"/><path fill-rule="evenodd" class="c" d="m101.6 90.6c-0.2 0.4-1.2 1-1.6 1.1 0.4-0.4 1.1-0.9 1.6-1.1z"/><path fill-rule="evenodd" class="c" d="m98 97.3c-0.1 0.4-0.6 0.5-0.9 0.6 0.1-0.3 0.6-0.4 0.9-0.6z"/><path fill-rule="evenodd" class="c" d="m91.9 107.8c-0.2 0.3-0.8 0.6-1.1 0.4 0.4-0.3 0.8-0.4 1.1-0.4z"/><path fill-rule="evenodd" class="c" d="m89.7 108.6c0.2 0.3-0.3 0.2-0.4 0.3 0-0.2 0.3-0.2 0.4-0.3z"/><path fill-rule="evenodd" class="c" d="m85.6 115.7c0 0.1 0 0.1 0 0.2-1.3 0.4-2.8 1.3-4.1 1.5 1.2-0.8 2.7-1.2 4.1-1.7z"/><path fill-rule="evenodd" class="c" d="m79.4 126.1c-1 0.6-2.3 1.3-3.5 2 1.1-0.9 2.3-2.1 3.5-2z"/><path fill-rule="evenodd" class="c" d="m78.4 125.3c0.2 0.2-0.1 0.2-0.2 0.3-0.1-0.2 0.1-0.2 0.2-0.3z"/><path fill-rule="evenodd" class="c" d="m78.8 128.1c0.2 0.2-0.1 0.2-0.2 0.3-0.1-0.2 0.1-0.3 0.2-0.3z"/><path fill-rule="evenodd" class="c" d="m74.3 128.3c0 0.4-0.7 0.5-1 0.6 0.2-0.3 0.7-0.5 1-0.6z"/><path fill-rule="evenodd" class="c" d="m73.7 129.3c0.1 0.3-0.6 0.6-0.8 0.4 0.3-0.2 0.5-0.4 0.8-0.5z"/><path fill-rule="evenodd" class="c" d="m74.9 133.2c0.1 0.1 0.1 0.1 0.1 0.2-0.3 0-0.6 0.4-0.9 0.2 0.3-0.2 0.5-0.4 0.8-0.4z"/><path fill-rule="evenodd" class="c" d="m75.5 136.8c0.1 0.1 0 0.1 0.1 0.2-0.2 0.2-0.3 0-0.4 0.2-0.1-0.2 0.1-0.3 0.3-0.4z"/><path fill-rule="evenodd" class="c" d="m70.6 131.2c0.1 0.3-0.5 0.6-0.7 0.4 0.2-0.2 0.5-0.3 0.7-0.4z"/><path fill-rule="evenodd" class="c" d="m74.7 137.5c0.1 0.2-0.1 0.2-0.2 0.2-0.1-0.1 0.1-0.2 0.2-0.2z"/><path fill-rule="evenodd" class="c" d="m74.3 137.8c0 0.2-0.7 0.7-0.9 0.8-0.1-0.1-0.2 0-0.2-0.1-0.2-0.5 0.8-0.8 1.1-0.7z"/><path fill-rule="evenodd" class="c" d="m124.9 64c-0.1 0.4 0.4 0.2 0.6 0.5-0.6 0.3-1.6 0.5-2.3 0.6 0.3-0.2 1.2-0.6 1.7-1.1z"/><path fill-rule="evenodd" class="c" d="m107.3 83.6c0.2 0.1-0.4 0.3-0.5 0.3 0-0.3 0.4-0.2 0.5-0.3z"/><g clip-path="url(#cp3)"><path fill-rule="evenodd" class="c" d="m87.9 106.3c-0.2-0.2-0.5 0.5-0.7 0.1 3.3-2.7 5.7-6.9 8.4-10.4 3.6-4.6 7.4-9.7 9.5-14.5 0.6-1.4 0.1-3.9 0-5.4-0.2-2.5 0-5.3 0.9-7.8 0.3-0.8 0.8-1.4 1-2.1 0.2-0.6 0.1-1.2 0.3-1.8 2.3-6.1 12-13 18-14.2 1.3-0.3 3.2-0.4 4.3 1.1 1.6 2.1 2.8 4.7 2.9 6.7 0.1 2.3-0.7 5.7-1.3 8.2-1.4 5.6-4.4 11.1-10.9 15.7-2.7 1.9-5.2 3.8-8.1 4.7-0.9 0.3-2.1 0.1-3 0.9-0.5 0.5-0.7 1.2-1.4 2-0.9 1-1.6 2.2-2.5 3.3-2.6 3.3-4.9 6.5-7.5 9.8-2.1 2.7-3.6 5.8-5.7 8.5-2.1 2.8-3.8 5.8-5.7 8.5-1.9 2.9-3.8 5.6-5.2 8.5-2 4.3-3.7 8.6-6 12.8-2.2 3.2-5.4 6.4-8.7 5.5-1.7-0.6-4-1.6-4.7-3.9-0.4-1.5 0-5.4 1-6.9 2.8-4.4 7.5-8.2 11.2-12.6 2.1-2.5 4-5.3 6.1-7.7 2.7-3.2 5.8-5.9 7.8-9zm-22.4 37.4c0.2 0.1 0.6-0.2 0.6-0.4-0.2 0.1-0.3 0.1-0.6 0.4zm-1.2-2.5c0.1 0 0.4-0.1 0.3-0.3-0.1 0-0.4 0.1-0.3 0.3zm-1.1-0.5c0.4-0.3 1.2-0.3 1.4-0.9q-0.1 0-0.1-0.1c-0.4 0.4-1.3 0.6-1.3 1zm0-1.5c0.3 0.3 1.1-0.1 0.7-0.5-0.3 0.1-0.5 0.1-0.7 0.5zm2.6 2.6c0.2-0.3 0.8-0.2 0.8-0.6-0.3 0.2-0.7 0.3-0.8 0.6zm3.4 2.5c0.2 0 0.4 0 0.4-0.3-0.1 0-0.5 0.1-0.4 0.3zm-3-2.1c0.4-0.3 1.2-0.2 1.3-0.7-0.4 0.3-1 0.2-1.3 0.7zm0.1 1.1c0.6-0.1 1.2-0.9 1.8-0.6-0.3 0.6-0.7 1.2-1.4 1.5 0.8 0 1.9-0.8 2.7-1.5-1-1-2.2-0.9-3.1 0.6zm5.9-9.5c-0.4-0.4-0.8 0.1-1.2 0.4-1.6 0.7-5.8 2.6-5.5 4.6 0.3 2 2.2-0.2 2.9 0.2 0.7 0.4 0.2 1.6 0.8 2.4 0.3 0 0.6 0 0.9 0.3 2.7-1.7 1.9-4.8 1.8-7.2 0.3-0.2 0.3-0.5 0.3-0.7zm26-34.7c-2.3 1.3-6.2 2.7-7.5 5.2 0.8-0.3 1.6-0.9 2.3-1.1-0.3 0.3-0.9 0.6-0.7 0.8-1.8 0.6-3.7 2.4-4.4 4.1 1.4-0.8 2.8-1.3 4.1-1.8-1.7 1.2-4.4 1.6-5.3 3.5 0.4 0 1.2-0.7 1.4-0.4-1.1 0.5-2.8 1.2-3 2.6 1.6-0.6 3.5-1.8 4.9-2-1.6 0.9-3.7 1.8-5.4 2.8 0.3 1.1 2.1-0.6 2.8-0.3-1.9 0.9-4.4 1.2-5.7 3.3 1.9-0.3 3.8-1.7 5.7-1.9-2.3 1.4-5.8 1.6-7.3 4 0.4-0.1 0.8-0.6 1.2-0.4-0.8 0.8-2 1-2.5 1.8 1.9-0.2 3.9-1.7 5.8-1.9-2.1 1.3-5.5 1.4-7.1 3.7 1.4 0 3-1.3 4.4-1.2-1.9 0.7-4 1.4-5.7 3.1 0.7 0.2 1.7-1.1 2.5-0.8-1 0.6-2.3 1.5-3.1 2.1 0.9-0.1 2.2-1.2 3-0.8-1.1 0.6-2.7 0.6-3.3 1.8-0.3 0.2-0.8 0.1-1 0.5 0.4 0.6 0.9-0.4 1.3 0.1-1.9 0.9-4.3 1.6-5.8 3.2 1 0 1.8-0.7 2.9-0.9-0.6 0.7-2 1.5-2.7 1.4q-0.3 0.4-0.5 0.8c0.6 0 1.2-0.7 1.7-0.5 0.2 0.1-0.1 0.2 0.1 0.3 0.4-0.2 0.8-0.4 1.1-0.1-0.8 0.7-1.9 0.6-2.9 1.4 0 0.2 0.4 0.2 0.3 0.3-0.4 0.3-1 0.6-1.2 1 0.1 0.4 0.5 0.1 0.5 0.4-0.6 0.4-1.4 0.6-1.8 1.1 1.3 0.3 2.8-1.7 4.1-1.8 0 0.3 0.2 0.3 0.4 0.4 1.7-0.6 3.4-1.6 5-2.2-1 0.9-2.4 1.2-3.6 2 0.1 0.8 0 1.5 0 2.3 0.6-0.2 1.3-0.9 1.9-0.8-0.4 0.6-1.3 0.7-1.9 1.2-0.1 0.5-0.5 1.1-0.2 1.7 0.8-0.5 1.8-1.2 2.5-1.5-0.7 0.7-1.4 2.1-2.6 2 0.2 0.8-0.4 1.8 0.1 2.5-0.6 0.6-1.1 1.2-0.8 1.9-0.3 0.1-0.6-0.1-1 0.4 0 0.2 0.4 0.2 0.2 0.4-0.1 0.4-0.6 0.3-0.7 0.7 1.1 0.1 1.9-1.5 3.1-2.1 3.2-5.3 5.3-10.8 8.1-16.2-0.3-1.2 1.1-2.7 2-3.9 1.9-2.8 3.1-6.6 5.4-9.2-0.5-0.1-1.1 0.1-1.6 0.2 3.1-0.7 4.1-4.2 6.1-6.5-0.5-0.3-1.1 0.5-1.6 0.4 1.7-0.7 2.8-1.9 3.8-3.4-0.3-0.3-0.5 0-0.7-0.1 0.4-0.5 1.1-0.5 1.3-1-0.9-0.2-1.9 0.9-2.8 1 1.7-1 4-1.6 4.4-3.6zm-31.3 33.7c0.7-0.3 1.3-0.8 1.9-1-0.3-0.1 0-0.3-0.2-0.6-0.6 0.2-1.4 1-1.7 1.6zm0.4 7.9c0 0.1 0.4-0.2 0.2-0.3-0.1 0.1-0.4 0.1-0.2 0.3zm7.2-16.2c0.1 0 0.4-0.2 0.3-0.3-0.1 0-0.4 0.2-0.3 0.3zm5.2-7.5c0.8-0.8 1.6-1.5 2.1-2.3-0.9 0.6-1.7 1.5-2.1 2.3zm6.4 1.8c0.1-0.1 0.3-0.2 0.2-0.4-0.1 0.1-0.3 0.3-0.2 0.4zm-2.4-5.3c0.1 0.2 0.6-0.1 0.6-0.3-0.2-0.1-0.5 0-0.6 0.3zm-14.2 29.7c0.1 0.2 0.7 0 0.6-0.3-0.2 0-0.5 0.1-0.6 0.3zm49.7-61.5c2.9-1.4 6.4-5.7 7.3-8 2.3-5.2 5.3-11.4 5-16.7-0.8-1.5-1.8-6.5-4.3-6.2-0.4 0-1.2 0.2-1.5 0.3-2.5 0.7-6.2 2.3-8.4 4-3.4 2.7-6.3 6.1-8.3 9.1-1.6 2.4-3.1 6.4-3.1 8.8 0 2.3-0.2 5.1 0.7 7.2 0.5-0.2 1.1-1.1 1.5-1.1-0.6 0.7-1.3 1-1.7 1.8-0.3 0.4-0.1 1.1-0.3 1.4-0.5 0.8-1.2 1.2-1.6 1.9-1.9 3.5-4.2 6.6-6.4 9.8 0.7-0.2 1.5-0.9 2.2-1-1.2 0.9-3.5 1.6-3.6 3.1 1.8-1 3.6-2.3 5.3-2.9-2.5 1.7-6.3 3.1-7.4 5.9 0.8-0.4 1.6-0.7 2.4-1.1-1.6 1.2-4.4 2.2-4.6 4 2.7-1.6 6.4-2.9 8.2-5.7-0.6-0.2-1.3 0.6-1.9 0.7 1.8-1 3.8-2.5 4.8-4.4-0.4-0.2-0.8 0.4-1.2 0.4 2.3-1.2 3.4-3.5 5.2-5.4-0.3-0.4-0.8 0.5-1.1 0.3 1-0.8 2.9-1.3 3.1-2.5 3.3-1.1 6.2-1.9 9.7-3.7zm-8.1 4.5c1.5 0 3.6-0.9 4.9-1.9-1.7 0.7-3.3 1.3-4.9 1.9zm17.2-14.7c0.5-0.8 1.1-1.6 1.2-2.4-0.4 0.8-1.1 1.6-1.2 2.4zm-28.9 27.5c0.2-0.3 0.5-0.6 0.5-0.9-0.2 0.3-0.5 0.6-0.5 0.9zm-36.6 42.6c0 0.2 0 0.4 0.1 0.7 0.2-0.4 0.8-0.5 0.8-0.8-0.3 0-0.6-0.1-0.9 0.1z"/></g><path fill-rule="evenodd" class="c" d="m127.2 52.3c-0.1 0.7-1 0.8-1.3 1.1 0 0.2 0.5-0.2 0.7 0 0.3 0.2 0.1 0.4 0.3 0.6 0.4 0.2 0.5-0.5 0.9-0.2 0.3 1-1.2 2.5-2 1.9 0.4-0.3 0.7-0.3 1.1-0.5-0.2-0.9-1.4 0.1-1.9-0.3 0.2-0.4 0.7-0.3 1-0.6-1.6-0.6-2.9 1.3-4.6 2.5 0-0.5 0.8-0.9 1-1.3-1.1 0.2-2.2 1.8-3 2.7 0.8 0.4 0.9-0.9 1.7-1.2 0 0.2-0.4 0.4-0.3 0.6 0.4 0.2 0.9-0.6 1.2-0.2-1.6 1.1-4.1 1.3-5.7 2.9 1.5 0 2.9-0.8 4.4-1.8 2 0 4.2-1.8 6.1-1.7-2.5 1-6 1.3-7.8 4 1.1 0.3 1.7-2.1 2.6-1.6 0.2 0.5-0.8 0.4-0.7 0.9 0.9-0.1 1.8-0.7 2.6-0.8-1.1 0.9-3.3 0.8-4.1 2.4 0.6 0.2 1.2-0.4 1.8-0.5-1.4 0.6-3.3 1.4-3.9 3.1 0.5 0.1 1.1-0.5 1.6-0.5-1.5 0.7-3.4 1.7-4 3.4 0.7-0.2 1.5-0.4 2.2-1.1 1.4 0.2 2.9-1.6 3.6-2.8-0.3-0.2-0.5 0-0.8 0.1 0.4-0.3 1.2-0.9 1.7-0.7-0.7 0.8-1.4 1.5-1.8 2.3 0.1 0.2 0.5-0.1 0.5 0.1-1.1 0.4-1.9 1.1-2.2 2.1 0.8-0.1 1.7-0.8 2.4-1.4 0.2-0.2 0.2 0.2 0.2 0.3 0.4 0 0.7-0.4 1-0.4-2.2 1.2-3.2 3.8-4.6 5.6 0.8-0.1 1.8-0.7 2.4-1.3 0.2-0.2 0.2 0.1 0.3 0.2 1.5-0.5 2.8-1.5 4.2-1.9 1.7-0.5 2.6-2.7 3.7-4.4 0.7-1.1 1-2.9 2.4-3-0.2 0.4-1.2 0.7-0.7 1.4-0.8 0.6-1 1.4-1.3 2.1 0.1 0.2 0.3-0.1 0.4 0.2-0.7 1.2-0.6 2.4-1.2 3.6 0.5-0.4 0.6-1.2 1.2-1.8 0 1.5-1.5 2.9-2.6 4.4-1.1 1.4-2.2 2.9-3.1 4.2-0.2 0.2-0.4 0.1-0.6 0.3-0.2 0.7-1.1 0.8-1.5 1.5 0 0.2 0.2 0.1 0.3 0.3-0.2 0.9-1.4 0.5-2.2 1.4-0.1 0.2 0.2 0.4 0.1 0.6-1.8 0.5-3.5 1.2-5.3 1.8 0-0.2 0.4-0.2 0.5-0.4q-1.4-0.5-2.7-1.2c-0.3 0.6-0.8 0.3-1.2 0.4 0.1-0.3 0.7-0.5 0.7-0.7-0.4-1-1.4-1.6-2-2.5-0.3 0-0.4 0.5-0.7 0.5-0.1-0.3 0.3-0.5 0.5-0.7q-0.2-0.5-0.5-0.9c-0.2-0.1-0.2 0.4-0.5 0.3-0.1-0.3 0.3-0.6 0.4-0.8-1.2-6.2 2.7-11.9 8.3-17.5 0-0.2-0.3 0-0.4-0.3 0.1-0.2 0.1-0.5 0.5-0.7 0.2 0 0.4 0.2 0.4 0.5 3.5-2.5 7.1-5.5 10.3-4.6zm-17.7 19.4c0.1 0.1 0.3-0.2 0.3-0.3-0.2 0-0.5 0.1-0.3 0.3zm6.3 7c0.1 0 0.3 0 0.2 0.1-0.1 0.2-0.5 0.3-0.5 0.5 0.3-0.1 0.6-0.2 0.9-0.5-0.2-0.1 0-0.3-0.2-0.4-0.1 0-0.4 0.1-0.4 0.3zm-3.2-1.9c0.6 0.1 1.7-0.3 1.8-1.1-0.7 0.2-1.3 0.7-1.8 1.1zm2.8 1.2c0.5-0.1 0.9-0.3 1.4-0.6 0-0.2 0.2-0.3 0-0.5-0.5 0.1-1.5 0.4-1.4 1.1zm-3.5-5.2c0.1 0.1 0.1 0.3 0.1 0.4 0.4-0.1 1.3-0.7 1.2-1.1-0.4 0.1-0.8 0.2-1.3 0.7zm3.6 3.5c0.2 0.3 1-0.4 0.9-0.6-0.3 0.1-0.9 0.2-0.9 0.6zm-1.2-1c0.4-0.1 1.4-0.6 1.4-1.1-0.5 0-1.5 0.6-1.4 1.1zm3 1.4c0.2 0.2 0.5-0.2 0.5-0.3-0.2 0-0.4 0.1-0.5 0.3zm-6.8-5.3c0.9-0.4 1.7-1.5 2-2.2-1 0.5-1.6 1.4-2 2.2zm1.4 0c0.1 0 0.2 0.1 0.3 0.2 0.4-0.3 1.1-1 1.2-1.4-0.4 0.4-1.5 0.5-1.5 1.2zm1.2 3.3c1 0.2 2.1-1.4 2.4-2.2-1.1 0.2-1.6 1.4-2.4 2.2zm3.5 1.8c0.7-0.1 1-1 1.5-1.5q-0.1-0.1-0.2-0.1c-0.6 0.3-1.3 1-1.3 1.6zm-0.1 1.8c1.2-0.2 3.1-0.7 4-1.9-1.4 0.6-2.7 1.1-4 1.9zm-2.3-12.2c-0.1 0.2 0.3 0.4 0.1 0.5-0.9 0.4-1.7 1.1-2.4 1.9 1.4-0.1 3.1-1.7 3.6-3-0.4 0.2-0.8 0.3-1.3 0.6zm2.6 7.8c-0.1 0-0.2-0.2-0.4 0-0.1 0.6-0.9 1.1-0.9 1.8 1.3-0.4 2.4-1.6 2.7-2.8-0.5 0.1-1.2 0.4-1.4 1zm-5.2-7.9c0.2-0.2 0.5-0.3 0.3-0.6-0.2 0.2-0.4 0.4-0.3 0.6zm0.8 0.4c0.1 0.2 0.4-0.1 0.4-0.2-0.1 0-0.3 0.1-0.4 0.2zm7.2 9.5c0.1-0.2 0.4-0.4 0.2-0.6-0.8 0.2-1.6 1.1-2 1.7 0.7 0.3 1.2-0.5 1.8-1 0.1 0.1 0 0.3 0.2 0.3 1.1-0.3 2.5-1.2 2.9-2.3-1.2 0.4-2.3 0.9-3.1 1.9zm-1-1.8c0.3-0.2 0.6-0.6 0.6-0.9-0.3 0.3-0.6 0.6-0.6 0.9zm0.8-0.9q0.2-0.2 0.1-0.4c-0.1 0.1-0.3 0.3-0.1 0.4zm-4 0.6c1.1-0.2 2.5-1.6 2.8-2.6-1.2 0.4-2.8 1.4-2.8 2.6zm-0.2-3.3c-0.1 0.2 0.1 0.3 0.1 0.4-0.9 0.6-1.9 1.5-2.2 2.3 1.2-0.2 2.1-1.3 2.9-2.3-0.1-0.3-0.5 0.1-0.5-0.2 1.5-0.7 2.4-2.2 3.5-3.4q-0.1 0-0.1-0.1c-1.7 0.4-2.5 2.1-3.7 3.3zm-1.9 0.4c0.2 0.2 0.5 0.1 0.7 0.4 0.9-0.8 1.9-1.7 2.3-2.6-1.2 0.1-2.3 1.3-3 2.2zm5.2 2.5c0.3-0.2 0.9-0.7 0.9-1.1-0.6 0-0.9 0.7-0.9 1.1zm-5.8-3.3c1.3-0.5 2.8-1.7 3.4-3-1.5 0.3-3 1.7-3.4 3zm5.1-0.6c0.2-0.2 0.4-0.4 0.5-0.7-0.3 0.3-0.7 0.5-0.5 0.7zm-5.2-2.3c0.2-0.1 0.5-0.3 0.4-0.4-0.2 0-0.6 0.2-0.4 0.4zm5.6 8.4c0.6-0.1 1.5-1 1.5-1.6-0.7 0.2-1.6 0.9-1.5 1.6zm-4.4-9.8c0.4-0.2 1.2-0.9 1.3-1.4-0.6 0.3-1.5 0.8-1.3 1.4zm0.6-2.3c-0.1-0.1 0.2-0.2 0-0.4-0.4 0.5-0.9 0.9-0.7 1.4-0.2 0.1-0.6 0.4-0.4 0.6 1.1-1.5 2.9-1.4 4.1-3q-0.1-0.1-0.2-0.2c-1 0.4-2 0.7-2.8 1.6zm1.2 8.5c0.8-0.1 1.5-1.2 1.7-1.9-0.9 0.3-1.2 1.3-1.7 1.9zm-0.2-3.4c1.2-0.2 2.4-1.4 2.9-2.5-1.2 0.1-2.5 1.4-2.9 2.5zm-0.3-3.3c1.2-0.2 2-1.5 2.8-2.4-1.2-0.2-2.3 1.6-2.8 2.4zm0.2-1c0.2-0.1 0.6-0.3 0.4-0.5-0.3-0.1-0.7 0.3-0.4 0.5zm2.4 8.5c1.1-0.2 1.5-1.7 2.3-1.9 0.1 0.3-0.6 0.5-0.3 0.8 0.7-0.1 1-1.2 1.7-1.3 0.1 0.2-0.2 0.3 0 0.5 1-0.4 2.4-0.9 3-2.1-2.2 0.4-5.8 1.5-6.7 4zm-0.2-10.1c0.6-0.1 1.3-0.8 1.7-1.4q0-0.1-0.1-0.1c-0.6 0.1-1.6 0.8-1.6 1.5zm-0.6-3.9c0.1-0.1 0.3-0.2 0.2-0.4-0.1 0-0.3 0.2-0.2 0.4zm-2 3.6c1.5-0.2 3.6-0.9 4.5-2.7-1.5 0.6-3.7 1-4.5 2.7zm3.5-3.7c0.2-0.1 0.5 0 0.5-0.3-0.1 0-0.6 0-0.5 0.3zm5.7 10.9c0.4 0.1 1.3-0.6 1.1 0.2-2 0.7-5.4 1.3-5.7 3.9 0.9 0 1.3-1.3 2-1.3 0.2 0.1 0 0.2 0.1 0.4 0.3 0 0.5-0.3 0.7 0-0.2 0.3-0.7 0.4-1 0.8-0.1 0-0.2-0.2-0.4-0.2-0.5 0.5-1 0.9-0.9 1.4 0.5-0.1 0.6-0.6 1-0.9 0.2 0.1 0.1 0.3 0.3 0.3 3.4-0.8 5.1-4.6 5.9-7.3-0.6 0.3-0.5 0.9-1.1 1.2-0.1-0.6 0.7-1.2 0.6-1.8-1 0.9-2 2.2-2.6 3.3zm-5.6-11.8c0.4-0.5 1.3-0.9 1.3-1.5-0.5 0.3-1.1 1-1.3 1.5zm4.3-3.1c0.3 0 0.5-0.1 0.7-0.3-0.1-0.1 0-0.1-0.1-0.2-0.1 0.2-0.7 0.2-0.6 0.5zm2.1-0.8c0.2-0.1 0.7-0.2 0.8-0.5-0.3 0-0.8 0.1-0.8 0.5zm-12.4 22.2c0.1-0.1 0.4-0.1 0.3-0.3-0.1 0.1-0.3 0.2-0.3 0.3z"/><g clip-path="url(#cp4)"><g clip-path="url(#cp5)"><g clip-path="url(#cp6)"><path class="d" d="m102.9 110.6c-0.1-0.2-0.2-0.4-0.3-0.5q-2.2-1.8-4.7-2.9c-1.6-0.6-3.3-1-4.9-1.2q-0.4 0-0.9 0c-1.8 0.1-3.6-0.4-5.4-1-0.5-0.2-0.7 0.3-1.1 0.3-0.2 0-0.2 0.3-0.1 0.4 0.1 0.4 0.2 0.7 0.5 1 1.8 1.8 3.6 3.8 5.6 5.4 0.3 0.3 0.6 0.5 1 0.7 1.2 0.5 2.2 1.4 3.4 1.8 0.2 0 0.3 0.3 0.1 0.5-0.3 0.3-0.6 0.6-0.9 0.7-1.1 0.4-2 1.1-3.1 1.4-1 0.2-1.9 0.5-2.8 0.8-0.9 0.3-1.7 0.5-2.6 0.4-0.1 0-0.3 0.2-0.4 0.3q0 0.2 0.1 0.4 0.4 0.7 1.2 1.1c1.9 1.2 4 1.7 6.2 1.5 2.5-0.1 4.8-0.8 7.1-1.9 1.1-0.5 2.2-1.1 3.4-1.5 1.3-0.4 2.6-0.4 4-0.3q0.6 0.1 0.9 0.6 0.2 0.4 0.4 0.8c0.5 1.6 1.3 3.2 2 4.8 0.8 1.7 1.5 3.3 2.5 4.9q0.1 0.2 0.1 0.3c0 0.2 0.1 0.4 0.1 0.5-0.1 0.1-0.3 0-0.4-0.1q-0.8-0.4-1.5-0.8-1.4-0.8-3-1.2c-1.2-0.3-2.4-0.6-3.6-0.9-1.6-0.3-3.2-0.2-4.7-0.1q-0.9 0.1-1.7 0.6-1.8 0.9-3.8 1-0.6 0.1-1.3 0.2c-0.3 0.1-0.4 0.3-0.3 0.6 0.1 0.3 0.2 0.6 0.5 0.8 1.2 0.8 2.4 1.7 3.8 2.3q1.9 0.8 3.9 1 2.5 0.1 4.9-0.4c1.5-0.2 2.9-0.7 4.5-0.7 1.2 0 2.4 0.3 3.6 0.7 0.9 0.4 1.5 1.1 2 1.9 1.6 3 3.4 5.8 5.2 8.6 0.9 1.3 1.7 2.7 2.9 3.7 0.2 0.1 0.4 0.3 0.5 0.2 0.1-0.1 0-0.3-0.1-0.4q-0.1-0.1-0.1-0.1c-1.4-2.1-2.8-4.2-4.2-6.3-1.3-2-2.5-4.1-3.7-6.3-0.5-1-1.1-2.1-1.7-3.1-0.4-0.7-0.4-1.3-0.2-2 0.4-1.1 1.1-2.1 1.8-3.1 0.3-0.4 0.7-0.7 1-1.1 0.5-0.8 1.2-1.5 1.6-2.4 0.1-0.3 0.2-0.6 0.4-0.7 1-0.9 1.2-2.2 1.8-3.3q0.2-0.3 0.3-0.8c0.1-1.5 0.4-2.9 0.1-4.5-0.1-1.2-0.3-2.3-0.7-3.5q-0.2-0.6-0.7-0.8c-0.6-0.3-0.8-0.2-1.1 0.3q-0.5 1.4-1.1 2.7-1.3 3.5-3.2 6.8c-0.6 1-0.9 2.2-1.2 3.4-0.4 1.4-0.6 2.8-0.5 4.3q0.1 0.6-0.1 1.2c-0.7-1.2-1.3-2.4-1.8-3.6-0.6-1.2-1.1-2.4-1.5-3.6-0.6-1.6-1.4-3.1-2.1-4.6q-0.3-0.6-0.5-1.2c-0.3-0.7-0.5-1.4-0.9-2.1-0.5-0.8-0.8-1.8-1.2-2.7-0.5-1-0.8-2.1-1.3-3.1-0.3-0.5-0.3-0.9-0.3-1.4 0-1.6 0.5-2.9 1.1-4.3q0.2-0.6 0.5-1.2c0.8-1.7 1-3.5 1-5.4q0-2.7-0.8-5.4c-0.5-2-1.5-3.8-2.6-5.6-0.1-0.1-0.2-0.2-0.4-0.2q-0.2 0-0.3 0.2-0.1 0.1 0 0.3c0.1 2.2-0.5 4.3-0.8 6.4-0.2 1.9-0.6 3.7-0.8 5.5-0.2 1.5 0 2.9 0.3 4.4 0.1 0.4 0.3 0.9 0.5 1.6-0.4-0.4-0.6-0.6-0.7-0.9-0.9-1.6-2.1-2.9-3-4.5-1.3-2.1-3-3.9-4.6-5.9-0.9-1.2-2.1-2.3-3.2-3.4-0.4-0.4-0.8-0.8-1-1.3-0.2-0.6-0.3-1.2 0-1.9 0.2-0.6 0.4-1.2 0.6-1.8q1-2.2 2-4.3 1-2 1-4.3 0.1-3.7-1.2-7.3c-0.3-0.8-0.7-1.6-1.1-2.4 0-0.1-0.2-0.2-0.3-0.3-0.2-0.3-0.7-0.2-0.8 0.1q-0.2 0.6-0.3 1.1c-0.4 1.5-0.7 2.9-1.1 4.3q-1 3.2-0.8 6.6c0 0.8 0 1.6-0.1 2.4q-0.1 0.9-0.1 1.8c0 1.3 0.1 2.6 0.5 3.9 0 0.1 0 0.2 0 0.3q-0.2-0.1-0.5-0.1c0 0 0-0.1-0.1-0.1q-2.2-1.8-4.4-3.6c-0.2-0.1-0.4-0.4-0.7-0.5-0.9-0.5-1.3-1.3-1.5-2.2-0.3-1.4-0.9-2.7-0.9-4.1-0.4-1.1-0.3-2.3-0.6-3.4-0.1-0.5-0.1-1-0.8-1.2-0.2-0.1-0.3-0.4-0.3-0.6-1-2.9-2.7-5.4-4.9-7.5-0.1-0.1-0.1-0.2-0.1-0.3 0.1 0 0.2-0.1 0.2-0.1 0.3 0.2 0.5 0.3 0.7 0.4 0.1 0.1 0.2 0.1 0.3 0.1 0.1-0.1 0.1-0.2 0-0.3-1-0.8-2.2-1.3-3.3-1.7-0.2 0-0.4 0.2-0.4 0.3 0 0.6 0.3 1.2 0.6 1.7 0.3 0.6 0.5 1.2 0.6 1.8q0.7 2.2 1.4 4.4c0.3 1.2 0.9 2.2 1.5 3.3 0.9 1.8 2.1 3.5 3.2 5.2q0.2 0.4 0.4 0.9c0 0 0 0.1 0 0.1-0.1 0.1-0.2 0.1-0.3 0.1-0.8-0.6-1.7-1.1-2.6-1.7q-1.3-1-2.7-1.7c-0.5-0.2-0.9-0.5-1.3-0.7-0.6-0.3-1-0.7-0.9-1.4 0-0.4-0.1-0.6-0.3-0.9-0.4-0.5-0.6-1.2-1.3-1.4 0.2 0.4 0.3 0.8 0.6 1.1 0.2 0.2 0.3 0.5 0.2 0.6-0.2 0.2-0.3-0.1-0.4-0.2-0.3-0.3-0.6-0.7-0.9-1-0.4-0.4-0.8-0.9-1.2-1.3-1.5-1.3-3.1-2.5-5-3.3-0.8-0.3-1.5-0.7-2.2-0.9-0.2 0-0.3-0.2-0.4-0.3-0.7 0.1-1.3-0.2-2-0.2q0-0.2 0.2-0.3 0.2-0.1 0.4 0c0.4 0.1 1 0 1.4 0.5q0.3 0 0.6 0 0.4 0 0.8 0c-0.1-0.3-0.3-0.3-0.5-0.4q-1.9-0.6-3.9-0.8c-1.4-0.3-2.8-0.5-4.2-1.1q-0.3-0.1-0.7-0.1c-0.2-0.1-0.2 0.1-0.2 0.3-0.1 0.3-0.1 0.7 0.2 1q1.7 1.8 3.6 3.4c0.8 0.7 1.6 1.4 2.5 2 1 0.7 2.1 1.3 3.2 1.9q3.5 2 7.5 2.8c2.2 0.4 4.3 1.4 6.2 2.7 0.8 0.7 1.8 1.2 2.7 1.9q0.8 0.6 1.7 1.2c0 0.1 0 0.1-0.1 0.2 0 0 0 0.1-0.1 0-0.7-0.2-1.5-0.3-2.3-0.4-1.6-0.3-3.2-0.1-4.7 0-0.6 0-1.1 0.1-1.6 0.3q-3.1 0.9-6.1 1.8-0.2 0.1-0.3 0.1c-0.3 0.1-0.4 0.4-0.3 0.5q0.5 0.7 0.9 1.4c0.4 0.5 1 0.8 1.7 1 0.5 0.1 1 0.3 1.6 0.3 1.2 0.1 2.5 0.2 3.7 0.1 1.3 0 2.7-0.1 3.9-0.8 1.6-0.9 3.2-1.6 5.1-1.8 0.2-0.1 0.5-0.2 0.8-0.2q1-0.2 1.8 0.5c2.2 1.8 4.4 3.5 6.3 5.6 0.6 0.8 1.4 1.4 2.1 2.1 0 0.1 0.1 0.2 0.1 0.3-0.1 0.3-0.3 0.1-0.4 0q-2.7-1.3-5.7-1.4-2.4 0-4.8 0.7-1.5 0.4-3 0.8c-0.7 0.3-1.5 0.5-2.3 0.5-0.5 0.1-1 0.3-1.5 0.4-0.3 0.1-0.4 0.6-0.1 0.8 0.8 0.6 1.5 1.2 2.5 1.5 1.1 0.3 2.2 0.6 3.3 0.9 0.3 0.1 0.7 0.2 1 0.2 0.8 0 1.5 0.2 2.2 0.3 0.8 0 1.6 0.1 2.5-0.2 0.7-0.2 1.6-0.2 2.4-0.4 0.7-0.1 1.5-0.5 2.3-0.6 1.4-0.3 2.8-0.3 4.2 0.1 0.4 0.1 0.7 0.3 1 0.5q0.6 0.6 1 1.3c1.9 2.6 3.8 5.3 5.4 8.1 1.1 1.9 2 3.8 3 5.6q0.2 0.4 0.3 0.8c0.6 1.6 1.3 3.2 2.1 4.8 0.2 0.4 0.3 0.9 0.4 1.3 0.2 0.5 0.3 0.9 0.6 1.2 0.1 0.1 0.2 0.3 0 0.4-0.1 0-0.3-0.1-0.4-0.2q-0.4-0.6-0.8-1.2-1.4-2.4-3.4-4.4c-0.2-0.2-0.4-0.3-0.7-0.3 0 0.2 0.3 0.5 0.1 0.8q-0.7-0.5-1.3-0.9c-0.2-0.1-0.3-0.4-0.2-0.4q0.2 0 0.3 0c0.4 0.2 0.7 0.6 1.1 0.5zm1-12.9c0 0 0.1 0 0.1-0.1 0.3-0.9 0.3-1.9 0.4-2.8 0-0.4-0.1-0.9-0.3-1.1-0.4-0.4-0.4-0.8-0.3-1.2q0.1-0.4 0.2-0.8c0.1-1.9 0.5-3.7 0-5.5 0-0.1 0-0.2 0.1-0.3 0-0.1 0.1-0.1 0.1-0.1 0.1 0 0.1 0 0.1 0q0.6 1.2 1.1 2.4 0.1 0.1 0.1 0.3c-0.1 0.8 0.2 1.6 0 2.4-0.1 0.5-0.1 1-0.1 1.5 0.1 1.3 0 2.7-0.2 4q-0.1 1.2-0.6 2.2c0 0.1-0.1 0.2-0.2 0.2-0.1 0-0.2-0.1-0.2-0.2q-0.2-0.5-0.3-0.9c0 0.1-0.2 0.1-0.2 0.2 0.1 0.5-0.1 1.1 0 1.6 0.1 0.4 0.1 0.9 0.1 1.3 0 0.1-0.1 0.2-0.2 0.2q-0.1-0.1-0.2-0.2-0.1-0.2-0.1-0.5c-0.4-2.1-0.3-4.3 0.4-6.6 0.2 0.8 0.1 1.4 0.1 1.9 0 0.7-0.1 1.4 0.1 2.1zm-13.3-7c0 0.1-0.1 0.3-0.2 0.4q-0.4 0.1-0.8 0.1c-1.2 0-2.2 0.3-3.2 0.9q-1.6 0.8-3.3 0.8c-1.8-0.1-3.5-0.5-5.2-1.2-0.2-0.1-0.3-0.3-0.5-0.4-0.1-0.1-0.2-0.2-0.1-0.3q0.1-0.1 0.2-0.1 1.2-0.1 2.3-0.4 1.9-0.5 3.8-0.9c1.6-0.3 3.2-0.2 4.8-0.1q1.4 0.1 2.6 0.8c0.3 0.1 0 0.2-0.1 0.3q-0.1 0.1-0.3 0.1zm25.8 34.6q0 0.1-0.1 0.1-0.2 0.1-0.3 0.2c-0.1-0.1-0.2-0.2-0.1-0.2q0.2-3 1.4-5.7 0.7-1.8 1.3-3.7 0.4-1.6 1.1-3.1 0.4-0.8 0.9-1.6 0.1-0.1 0.3-0.1 0.1 0 0.2 0.2 0.2 1.3 0.3 2.7 0.1 0.7 0 1.4c-0.1 1.5-0.4 3-0.9 4.5q-0.3 1-0.9 1.9c-0.8 1.2-1.7 2.2-2.5 3.4q-0.1 0.1-0.2 0.2c-0.2 0-0.3 0-0.5-0.2zm-14.5-9c0.3 0.4 0.8 0.3 1.2 0.3 0.4 0 0.8 0 1.2 0.3-1.1 0.4-2.1 0.7-3.1 1-0.7 0.2-1.2 0.4-1.8 0.9q-1.3 1.1-2.9 1.6c-1.4 0.5-2.8 0.7-4.3 0.6-1.3-0.1-2.5-0.4-3.6-1-0.1-0.1-0.1-0.2-0.2-0.3 0.1 0 0.2-0.1 0.3-0.1 1.1 0.1 2.2-0.4 3.3-0.7 0.3 0 0.7-0.2 1-0.5q0.9-0.5 1.7-1.2c1.5-1.1 3.1-1.7 4.9-2.2q1.2-0.3 2.5-0.1c1.1 0.2 2.2 0.5 3.2 1.1 0.4 0.2 0.8 0.2 1 0.6-0.4 0.3-0.8 0-1.2 0-0.3 0-0.5-0.2-0.8-0.2-0.8-0.1-1.6-0.4-2.4-0.1zm-13.3-8.8q0-0.1 0-0.1 0.1-0.1 0.2-0.1c0.7 0.3 1.5 0.3 2.2 0.4 2.8 0.3 5.6 1 8.2 2.1q0.6 0.3 1.1 0.6 0.8 0.6 1.6 1.1c0.1 0.1 0.3 0.3 0.3 0.4-0.2 0.5 0.2 0.7 0.5 0.8q0.9 0.5 1.7 1c0.1 0.1 0.1 0.2 0.1 0.3 0 0.2-0.1 0.2-0.2 0.1-1.9-0.5-3.8-0.7-5.8-0.4q-0.3 0-0.7 0.1-0.2 0-0.4-0.1c-1.3-0.5-2.5-0.9-3.6-1.7-0.4-0.3-0.9-0.6-1.2-1-0.6-0.5-1.3-0.7-2-1-0.3-0.8-0.9-1.4-1.5-1.9-0.2-0.1-0.4-0.4-0.5-0.6zm7.2 22.4c0.1-0.1 0.1-0.3 0.2-0.3 0.7-0.1 1.5-0.1 2.2-0.3 1.9-0.4 3.8-0.7 5.6-1 2.2-0.3 4.4-0.2 6.4 0.6 0.3 0.1 0.6 0.1 0.8 0.5 0.1 0.4 0.6 0.3 0.9 0.4 0.3 0.2 0.7 0.2 1 0.4q0.2 0.1 0.5 0.3 0.1 0.1 0.1 0.3 0 0.1-0.2 0.2-1.1-0.1-2.1-0.2c-1.1-0.1-2.3-0.1-3.4 0.1-1.9 0.3-3.7 0.7-5.6 1-2.1 0.4-4.1 0-5.8-1.5-0.1-0.2-0.3-0.3-0.5-0.4q0-0.1-0.1-0.1zm-42-67.1c1.6 0.5 3.2 0.8 4.8 1.2 2.4 0.5 4.7 1.4 6.7 3 1.1 0.9 2.2 2 3.2 3q0.1 0.1 0.1 0.3c0 0.1 0 0.1 0 0.2-0.1 0-0.2 0.1-0.3 0q-0.5-0.3-1-0.7c-0.2 0.8-0.8 0.2-1.1 0.1q-1.4-0.2-2.7-0.6c-0.6-0.2-1.2-0.5-1.8-0.7-1.3-0.5-2.5-1.1-3.6-1.9-1.5-1.2-3.1-2.4-4.3-3.9zm26.1 17c-1.1 0.3-1.9 0.6-2.8 0.9-0.9 0.2-1.7 0.4-2.4 1-0.6 0.4-1.5 0.4-2.1 0.9-0.1 0-0.2 0-0.3 0-2.3 0.2-4.4-0.3-6.4-1.4q-0.2-0.1-0.2-0.3c0-0.1 0.1-0.2 0.3-0.3 1.8-0.7 3.6-1 5.5-1.1 1.4-0.1 2.8-0.2 4.2-0.3 0.7-0.1 1.3-0.1 2 0.2-0.2 0.2-0.5 0.2-0.8 0.2q-1.6-0.1-2.9 0.8c-1.1 0.6-2.2 0.6-3.3 0.6-0.5 0-0.9-0.1-1.3-0.2-0.2 0-0.4 0.1-0.3 0.2q0.1 0.2 0.2 0.3c0.4 0.2 0.9 0.2 1.4 0.3 1.4 0 2.8-0.4 4.1-1 0.2-0.2 0.6-0.4 0.8-0.4 0.9 0.1 1.6-0.3 2.4-0.4 0.6-0.2 1.2-0.4 1.9 0zm11.7-13.2c0.3 0.9 0.4 1.5 0.4 2.1-0.1 1.9-0.4 3.8-1 5.6 0 0.1-0.1 0.2-0.2 0.3-0.1-0.1-0.2-0.2-0.2-0.3q-0.1-0.2-0.1-0.5c-0.1-0.1-0.1-0.3-0.3-0.2-0.1 0-0.2 0.1-0.2 0.2q-0.3 2.3-0.6 4.6-0.1 0.5-0.2 1c-0.5-0.2-0.4-0.6-0.4-1q-0.5-1.7 0.2-3.3c0.2-0.5 0.4-1.1 0.6-1.7 0.4-1.5 0.7-3.1 1.1-4.7 0.1-0.6 0.2-1.2 0.2-1.8-0.1-0.3 0.1-0.7 0.1-1.1 0 0 0.1 0 0.1 0q0.1 0 0.2 0c0.3 0.3 0.3 0.7 0.3 0.8zm-13.9 4.9c-1.6-2.5-2.9-5-3.8-7.7q-0.1-0.4-0.3-0.6c-0.4-0.5-0.5-1.1-0.7-1.7 0 0 0.1-0.1 0.1-0.2 0 0 0.1 0 0.2 0 0.6 0.5 1 1.1 1.5 1.7 1.9 2.2 3 4.8 3.8 7.5 0.4 1.3 0.5 2.6 0.7 3.9q-0.6-1.2-0.9-2.6c-0.5-2-1.6-3.8-2.1-5.8q0-0.1-0.1-0.1-0.1 0-0.1-0.1c0 0.1-0.1 0.1-0.1 0.2 0.3 1.1 0.6 2.3 1.1 3.3 0.4 0.7 0.6 1.4 0.7 2.2zm14.7 0.1c0.1 0.2 0.2 0.3 0.2 0.5 0.1 1.4 0 2.8-0.6 4.1-0.2 0.5-0.2 1.1-0.4 1.6-0.2 0.5-0.6 0.9-0.8 1.4-0.3 0.4-0.4 0.8-0.6 1.3q-0.1 0.1-0.2 0.1-0.2 0-0.1-0.2c0.3-1.5 0.6-3.1 1.1-4.6 0.5-1.3 0.9-2.7 1.4-4.2zm-2.8 34.9q0 0 0-0.1c0.1 0 0.1-0.1 0.1-0.1 0.6 0.1 1.1 0.2 1.7 0.2 2 0 3.9 0.5 5.8 1.1 1.2 0.3 2.2 0.9 3.2 1.6 0 0 0 0.2 0 0.3-0.1 0-0.2 0-0.2 0q-3.2-1.7-6.8-2.3c-0.8-0.1-1.7-0.2-2.5-0.3-0.5-0.1-0.9-0.1-1.3-0.4zm16.4-14.8c0.3 0.2 0.4 0.4 0.4 0.6 0.1 1 0.2 2 0.2 3-0.2 2.2-1.1 4.2-2 6.1q0 0.1-0.1 0.1c-0.1 0-0.1-0.1-0.1-0.1 0-0.6 0.2-1.2 0.4-1.7 0.6-1.6 1.1-3.1 1.1-4.7 0-1.1 0.1-2.2 0.1-3.3zm-16-25.9c0.2 0.3 0.2 0.6 0.2 0.8-0.2 1.8-0.6 3.6-1 5.3-0.2 0.7-0.5 1.4-0.7 2.1q-0.1 0.2-0.2 0.1c-0.1 0-0.1 0-0.1-0.1 0.1-0.8 0.1-1.7 0.3-2.5 0.3-1.9 0.9-3.8 1.5-5.7zm12.6 33.1c-0.2-0.7-0.4-1.1-0.4-1.6 0.1-1.4 0.2-2.9 0.5-4.3 0-0.4 0.2-0.7 0.2-1.1-0.1-1.1 0.3-2.2 0.4-3.2 0.1-0.1 0.1-0.2 0.2-0.2 0.1 0 0.2 0.1 0.2 0.2q0.1 1.4-0.1 2.7-0.4 1.9-0.8 3.7-0.3 1.5-0.1 3.1c0 0.1-0.1 0.2-0.1 0.7zm-25.1-25.9c-1.8-2.3-3.9-6.5-3.8-8.5 0.5 1.8 1.3 3.3 2.2 4.8 0.4 0.7 0.8 1.5 1.2 2.3 0.2 0.4 0.5 0.8 0.4 1.4zm33.4 58.3c-0.8 0.2-1.1 0.4-1.5 0.4-1.1 0.1-2.2 0.5-3.3 0.7-1.1 0.3-2.2 0.3-3.4 0.2 0.4-0.3 0.7-0.4 1.1-0.4 2.2-0.5 4.4-0.9 7.1-0.9zm-7.2-4c-1.4 0.6-2.7 0.5-4 0.7 1.2-0.6 2.5-0.9 4-0.7zm-15.3-47.3c0.5 1.1 0.7 2 0.4 3-0.4-0.9-0.5-1.8-0.4-3zm26.9 43.1c0.1 0.1 0.2 0.2 0.2 0.3-0.1 0.6 0 1.3-0.3 1.8-0.5-0.6 0-1.2 0-1.8 0-0.1 0.1-0.2 0.1-0.3z"/></g></g></g><g clip-path="url(#cp7)"><g clip-path="url(#cp8)"><g clip-path="url(#cp9)"><path class="d" d="m61.1 63.3c0.1 0.2 0.4 0.3 0.7 0.3 1.1 0.3 2.2 0.7 3.2 1.3 0.2 0.2 0.5 0.2 0.7 0.1-0.4-0.6-1.2-0.9-1.8-1.1-0.9-0.3-1.8-0.8-2.8-0.6z"/></g></g></g><g clip-path="url(#cp10)"><g clip-path="url(#cp11)"><g clip-path="url(#cp12)"><path class="d" d="m65.7 65c0.4 0.7 1.1 1.2 1.9 1.6-0.6-1-0.8-1.3-1.9-1.6z"/></g></g></g><g clip-path="url(#cp13)"><g clip-path="url(#cp14)"><g clip-path="url(#cp15)"><path class="d" d="m99 111.1c-0.1-0.1-0.1-0.2-0.2-0.3q-2.5-0.6-5.1-1.1c0 0-0.1 0.1-0.1 0.2 0 0 0 0.1 0.1 0.1 0.1 0.1 0.1 0.2 0.2 0.2q2.4 0.5 4.8 0.9c0.1 0.1 0.2 0 0.3-0.1z"/></g></g></g><g clip-path="url(#cp16)"><g clip-path="url(#cp17)"><g clip-path="url(#cp18)"><path class="d" d="m99 111c0.5 0.7 1.2 0.7 1.9 0.8 0 0 0.1-0.1 0.2-0.2q-0.1 0-0.1-0.1-0.8-0.3-1.6-0.5c-0.1-0.1-0.3 0-0.4 0.1z"/></g></g></g><g clip-path="url(#cp19)"><g clip-path="url(#cp20)"><g clip-path="url(#cp21)"><path class="d" d="m101.9 116.3c-0.1 0-0.2-0.1-0.3-0.1q-0.9 0-1.9 0.2-0.2 0-0.5 0.1-2.4 1.2-4.9 2.4c0 0 0 0.2 0 0.2 0.1 0 0.2 0.1 0.2 0.1 0.5-0.2 1.1-0.2 1.6-0.5 1.5-1.2 3.3-1.7 5.2-2.2q0.3-0.1 0.6-0.2z"/></g></g></g><g clip-path="url(#cp22)"><g clip-path="url(#cp23)"><g clip-path="url(#cp24)"><path class="d" d="m109.3 129.3c-0.6-0.1-1.3-0.1-1.9 0-1.2 0.2-2.5 0.5-3.7 0.7-0.6 0.1-1.2 0.4-1.7 0.7-0.1 0-0.1 0.1-0.1 0.1q0.1 0.1 0.1 0.1c0.2 0 0.4 0 0.5-0.1 2.1-0.7 4.2-1.1 6.4-1.2 0.1 0 0.3-0.1 0.4-0.3z"/></g></g></g><g clip-path="url(#cp25)"><g clip-path="url(#cp26)"><g clip-path="url(#cp27)"><path class="d" d="m62.8 66.5q0.2 0.2 0.4 0.4 0.7 0.5 1.4 1 0.2 0.1 0.2-0.1c0-0.1 0-0.2 0-0.2-0.6-0.5-1.1-1-1.8-1.3q-0.1 0-0.1 0-0.1 0.1-0.1 0.2z"/></g></g></g><g clip-path="url(#cp28)"><g clip-path="url(#cp29)"><g clip-path="url(#cp30)"><path class="d" d="m116.4 125.3c0.5-0.2 0.5-0.6 0.7-1 0.5-0.8 0.9-1.6 1.5-2.3 0.4-0.6 0.6-1.3 0.7-2 0 0-0.1-0.1-0.1-0.1q-0.1 0-0.1 0-0.1 0.1-0.1 0.1c-0.6 1.5-1.6 2.7-2.3 4.1-0.1 0.4-0.5 0.8-0.3 1.2z"/></g></g></g><g clip-path="url(#cp31)"><g clip-path="url(#cp32)"><g clip-path="url(#cp33)"><path class="d" d="m119.5 118.3q0.1 0.1 0.1 0.2c0.1 0 0.2 0 0.2 0 0.4-0.6 0.6-1.2 0.5-1.8 0-0.1-0.1-0.1-0.1-0.1q-0.1 0-0.1 0.1-0.3 0.8-0.6 1.6z"/></g></g></g><g clip-path="url(#cp34)"><g clip-path="url(#cp35)"><g clip-path="url(#cp36)"><path class="d" d="m90.6 90.7c-0.8-0.4-1.7-0.5-2.6-0.6-1.1-0.1-2.2-0.1-3.2 0.2-0.7 0.2-1.4 0.1-2.1 0.2-0.7 0-1.4 0.1-2.2 0.6 1.4 0.1 2.6-0.1 3.7-0.3 1.6-0.2 3.2-0.4 4.8-0.1 0.6 0.1 1.1 0.3 1.6 0z"/></g></g></g><path class="d" d="m48.6 161.1q0.3-0.5 0.5-1.1 0.1-0.3 0-0.6-0.1-0.4-0.3-0.6-0.2-0.3-0.5-0.7-0.3-0.3-0.4-0.4l0.3-0.5 5.4 3.4q2.3 1.4 3.6 3 1.4 1.7 1.6 3.6 0.2 1.9-1.1 4-1 1.6-2.6 2.5-1.6 0.9-3.6 0.8-2 0-4.1-1.3l-6.6-4.1 0.3-0.5 0.6 0.2q0.6 0.2 0.9 0.3 0.4 0 0.8-0.1 0.4-0.1 0.7-0.6zm-2.2 7.9q-0.5 0.8-0.5 1.5 0.1 0.6 0.8 1.1 0.5 0.3 1 0.7 1.5 0.9 3 0.8 1.5 0 2.7-0.8 1.2-0.8 1.9-2.1 1-1.6 1.2-3.2 0.2-1.6-0.6-3.1-0.7-1.5-2.6-2.7l-1.5-0.9z"/><path class="d" d="m68.6 168.7q-0.4 0-1.1-0.1-0.6-0.1-0.9 0-0.3 0-0.6 0.4-0.2 0.3-0.5 1.2l-1.6 4.3q-0.8 2.4-0.3 4.2 0.4 1.7 2.8 2.5 4.3 1.6 6.2-3.8l1.5-4q0.3-0.9 0.3-1.3 0-0.5-0.2-0.7-0.2-0.3-0.7-0.7-0.6-0.3-0.9-0.6l0.2-0.5 5.4 2-0.1 0.5q-0.2 0-0.4 0-0.2 0-0.5-0.1-0.4 0-0.7-0.1-0.2 0-0.5 0.1-0.2 0.1-0.4 0.3-0.4 0.5-0.6 1.3-0.2 0.5-0.6 1.5-0.3 1.1-0.5 1.6-0.8 2.3-1.8 3.8-1 1.4-2.6 2-1.7 0.5-4.2-0.4-1.4-0.5-2.5-1.4-1.1-0.9-1.6-2.2-0.5-1.3-0.1-2.8 0.2-1.1 0.8-2.7 0.4-0.9 0.7-1.8 0.5-1.2 0.7-1.8 0.2-0.8 0.3-1.2 0-0.4-0.3-0.8-0.3-0.3-0.9-0.8-0.3-0.2-0.5-0.3l0.2-0.5 6.7 2.4z"/><path class="d" d="m97.1 177.4q-0.2-0.1-0.3-0.4-0.2-0.2-0.3-0.5 0-0.1-0.1-0.3-0.2-0.3-0.3-0.4-0.1-0.2-0.2-0.3-0.6-0.8-1.5-1.2-0.8-0.4-1.8-0.5-1.4-0.1-2.7 0.5-1.2 0.6-2 2-0.9 1.3-1 3.2-0.2 1.9 0.4 3.4 0.6 1.5 1.9 2.4 1.2 0.9 2.9 1 1.5 0.1 2.6-0.4 1.2-0.5 1.9-1.6l0.6 0.1-0.3 2q-1.2 0.6-2.8 0.8-1.5 0.3-2.8 0.2-2.1-0.1-3.8-1.1-1.6-1-2.5-2.7-0.8-1.7-0.6-3.9 0.1-2 1.2-3.6 1.1-1.6 3.1-2.5 1.9-0.8 4.2-0.6 2.3 0.1 4.5 1.2l0.2 3.3z"/><path class="d" d="m105.3 184.3q0.1 0.8 0.3 1.2 0.2 0.3 0.4 0.4 0.3 0.1 0.8 0.1 0.7 0 1.2 0.2v0.5l-6.8 0.9q-0.1-0.1-0.1-0.2 0-0.1 0-0.3 0.2-0.2 0.5-0.3 0.2-0.1 0.6-0.2 0.4-0.1 0.6-0.3 0.2-0.2 0.3-0.6 0-0.4-0.1-1.2l-1.1-8.2q0-0.8-0.2-1.2-0.2-0.3-0.5-0.4-0.2-0.1-0.7-0.2-0.3 0-0.5-0.1-0.3 0-0.6-0.1v-0.5l6.8-0.9 0.1 0.5q-0.5 0.3-1.1 0.5-0.5 0.2-0.7 0.3-0.2 0.2-0.3 0.6-0.1 0.4 0 1.2l0.5 3.4 7.6-0.9-0.5-3.6q-0.1-0.7-0.2-1.1-0.2-0.3-0.5-0.4-0.2-0.1-0.7-0.2-0.6-0.1-1-0.2l-0.1-0.5 6.7-0.9 0.1 0.5q-0.4 0.3-0.9 0.4-0.5 0.3-0.8 0.4-0.2 0.2-0.3 0.6-0.1 0.4 0.1 1.3l1 8.1q0.1 0.9 0.3 1.2 0.2 0.4 0.4 0.5 0.2 0.1 0.8 0.1 0.7 0.1 1.1 0.2v0.6l-6.7 0.8-0.1-0.5q0.3-0.2 0.5-0.3 0.2-0.1 0.6-0.2 0.4-0.1 0.6-0.3 0.2-0.1 0.2-0.5 0.1-0.4 0-1.1l-0.5-4-7.6 1z"/><path class="d" d="m133.6 180.4q-0.2 0.1-0.3 0.1-0.2 0.1-0.7 0.2-0.3 0.1-0.5 0.1l-10.5 3.6-0.2-0.5q0.3-0.3 0.5-0.5 0.3-0.1 0.6-0.3 0.4-0.2 0.5-0.4 0.1-0.1 0.1-0.5 0-0.4-0.3-1.3l-2.6-7.6q-0.3-0.8-0.5-1.2-0.3-0.3-0.6-0.4-0.3 0-0.9 0-0.1 0-0.4 0-0.3 0-0.5 0l-0.2-0.5 10.4-3.6q0.1 0 0.3-0.1 0.1-0.1 0.2-0.1 0.3-0.2 0.5-0.3 0.2 0 0.4-0.1l1.1 3.2-0.5 0.2q-0.2-0.1-0.4-0.3-0.2-0.2-0.5-0.5-0.4-0.4-0.7-0.6-0.3-0.2-0.7-0.2-0.6 0-1.5 0.2-0.8 0.3-1.9 0.7-1.3 0.4-2.1 0.7 0.1 0.5 0.4 1.1l1.4 4.1 2.9-1q0.8-0.2 1.1-0.5 0.4-0.3 0.5-0.6 0.2-0.4 0.3-1.2l0.1-0.3 0.5-0.2 1.5 4.3-0.5 0.3q-0.7-0.8-1.3-1.1-0.7-0.3-1.5 0l-3.4 1.1 1.2 3.4q0.4 1.1 0.8 1.5 0.4 0.4 0.9 0.4 0.5 0 1.4-0.3l1-0.3q1.3-0.5 2.1-1.1 0.9-0.6 1-1.6v-0.4q0.1-0.5 0.1-0.7 0.1-0.2 0.2-0.5l0.6-0.2z"/><path class="d" d="m144.8 168.9q-0.2 0.1-0.5 0.3-0.9-0.7-1.4-0.9-0.5-0.2-0.9-0.1-0.4 0.1-1.3 0.6l-2.3 1.2 2.1 3.8q0.4 0.7 0.7 1 0.3 0.3 0.6 0.2 0.3 0 0.8-0.2 0.4-0.1 0.6-0.2 0.3-0.1 0.6-0.1l0.3 0.5-6.4 3.5-0.2-0.5q0.1-0.2 0.3-0.4 0.2-0.2 0.3-0.3 0.1-0.1 0.2-0.2 0.4-0.3 0.5-0.5 0.1-0.2 0.1-0.6-0.1-0.4-0.5-1.1l-3.9-7.2q-0.4-0.7-0.8-1-0.3-0.3-0.6-0.3-0.3 0-0.9 0.1-0.6 0.2-1 0.2l-0.3-0.5 9.4-5.1 1.6-0.9 1.6 2.9-0.4 0.2q-0.2 0-0.4-0.2-0.3-0.1-0.6-0.3-0.4-0.3-0.7-0.4-0.3-0.2-0.7-0.2-0.3-0.1-0.7 0-0.4 0.2-0.9 0.4-0.4 0.3-1.1 0.6l-1.8 1q-0.4 0.2-0.5 0.3-0.1 0.1-0.1 0.3 0 0.2 0.2 0.5l2.2 4q0.4-0.2 1.1-0.6 0.6-0.3 0.9-0.4 1.1-0.6 1.7-1.2 0.3-0.3 0.3-0.6 0.1-0.3 0-0.9 0-0.1 0-0.2 0-0.2 0-0.4l0.6-0.2z"/><path class="d" d="m35.8 41q-0.6-0.7-0.9-0.8-0.4-0.2-0.7-0.1-0.2 0-0.7 0.3-0.7 0.4-1 0.5l-0.3-0.4 5.1-4.7 0.4 0.4q-0.2 0.3-0.3 0.5-0.2 0.2-0.4 0.5-0.3 0.4-0.4 0.7-0.1 0.2 0.1 0.6 0.1 0.3 0.7 0.9l5.1 5.5q0.8 0.9 1.3 1.1 0.5 0.2 1.1-0.2 0.5-0.4 1.8-1.6 0.9-0.7 1.2-1.5 0.4-0.7 0.1-1.7v-0.3q-0.2-0.4-0.2-0.6-0.1-0.3-0.1-0.5l0.5-0.4 2 3q-1.1 0.9-1.8 1.5l-7.1 6.6-0.4-0.4q0.1-0.1 0.3-0.6 0.4-0.5 0.5-0.8 0.1-0.3 0.1-0.7-0.1-0.4-0.5-0.9z"/><path class="d" d="m61.3 34.9q-0.1 0.1-0.2 0.2-0.2 0.1-0.6 0.3-0.3 0.1-0.5 0.2l-8.8 5.7-0.3-0.4q0.1-0.3 0.3-0.5 0.2-0.2 0.5-0.5 0.3-0.2 0.4-0.4 0.1-0.2-0.1-0.6-0.1-0.4-0.5-1l-4.2-6.6q-0.4-0.7-0.7-0.9-0.4-0.3-0.6-0.3-0.3 0-0.9 0.2-0.1 0-0.4 0.1-0.2 0.1-0.5 0.1l-0.3-0.4 8.8-5.7q0.2 0 0.3-0.2 0.1-0.1 0.2-0.1 0.2-0.2 0.4-0.4 0.2-0.1 0.4-0.1l1.7 2.7-0.5 0.3q-0.2-0.1-0.4-0.2-0.2-0.1-0.5-0.3-0.5-0.4-0.8-0.5-0.3-0.1-0.7 0-0.6 0.1-1.4 0.5-0.7 0.5-1.6 1.1-1.1 0.7-1.7 1.1 0.2 0.4 0.5 0.9l2.3 3.5 2.5-1.5q0.6-0.5 0.9-0.8 0.3-0.3 0.3-0.7 0-0.3 0-1.1v-0.3l0.5-0.4 2.3 3.8-0.4 0.3q-0.8-0.6-1.5-0.7-0.7-0.2-1.4 0.3l-2.8 1.8 1.9 2.9q0.5 0.9 1 1.2 0.5 0.3 1 0.2 0.5-0.1 1.2-0.6l0.8-0.6q1.1-0.6 1.8-1.4 0.6-0.7 0.5-1.8l-0.1-0.3q0-0.4 0-0.7 0-0.2 0-0.4l0.5-0.4z"/><path class="d" d="m77.1 18.4q-0.1-0.1-0.4-0.3-0.2-0.2-0.4-0.4 0 0-0.2-0.2-0.2-0.1-0.4-0.2-0.1-0.2-0.3-0.3-0.8-0.4-1.7-0.5-0.9 0-1.8 0.3-1.3 0.4-2.2 1.4-0.8 1-1.1 2.5-0.3 1.4 0.3 3.1 0.6 1.8 1.6 2.9 1.1 1.1 2.5 1.5 1.4 0.4 3-0.2 1.3-0.4 2.1-1.3 0.9-0.9 1.1-2.1l0.5-0.1 0.5 1.9q-0.8 0.9-2.1 1.7-1.3 0.8-2.5 1.2-1.9 0.6-3.7 0.3-1.8-0.3-3.2-1.5-1.3-1.1-2-3.1-0.6-1.9-0.1-3.7 0.4-1.8 1.8-3.3 1.3-1.4 3.5-2.1 2-0.6 4.3-0.5l1.4 2.8z"/><path class="d" d="m85 21.2l-0.2 0.5q-0.3 1.3-0.4 2.1-0.2 0.7-0.1 1.2 0 0.3 0.3 0.5 0.3 0.2 0.6 0.3 0.4 0.1 1 0.1h0.1l0.1 0.6-4.8 0.6-0.1-0.5q0.2-0.1 0.3-0.2 0.2-0.1 0.4-0.3 0.3-0.1 0.5-0.3 0.2-0.2 0.3-0.5 0.1-0.3 0.2-0.5 0.1-0.3 0.1-0.4l0.1-0.3 2.5-10.3q0-0.1 0-0.3 0-0.2 0-0.4 0-0.1 0.1-0.2 0.5-0.1 0.9 0 0.3 0 0.8 0.3l6 10.6q0.2 0.3 0.4 0.4 0.2 0.2 0.4 0.3 0.2 0 0.5 0.1 0.3 0.1 0.7 0.2v0.5l-5.9 0.8-0.1-0.6q0.5-0.2 0.8-0.3 0.3-0.2 0.5-0.5 0.3-0.3 0.2-0.7 0-0.4-1.4-2.9-0.1-0.1-0.1-0.2-0.1-0.2-0.1-0.3zm1.4-6.2l-1.2 5.3 3.9-0.5z"/><path class="d" d="m112.9 23.8q0 1 0.4 1.6 0.1 0.3 0.3 0.4 0.2 0.1 0.6 0.2 0.3 0 0.5 0.1 0.1 0 0.2 0.1v0.6l-6.4-0.6v-0.5l0.4-0.1q0.5-0.1 0.9-0.3 0.3-0.1 0.6-0.3 0.2-0.3 0.3-0.8l0.1-8.8-4.7 8.5q-0.4 0.7-0.9 2l-0.8-0.1q-0.4-0.9-1.1-3-1.1-2.8-1.7-4.5-0.6-1.8-1.1-3.4-0.2 0.8-0.5 2.4-0.4 1.9-0.6 3.2-0.2 1.2-0.3 2.5-0.1 0.5 0.1 0.9 0.2 0.3 0.5 0.5 0.3 0.2 0.8 0.4l0.4 0.2-0.1 0.5-4.9-0.4v-0.6q0.1 0 0.5-0.1 0.6-0.1 0.9-0.3 0.2-0.1 0.5-0.3 0.2-0.3 0.3-0.8l1.5-7.6q0.1-0.7 0.2-1.3 0-0.4-0.1-0.7-0.2-0.2-0.4-0.4-0.2-0.1-0.6-0.3-0.4-0.2-0.7-0.3l0.1-0.5 4 0.3q0.1 0.9 0.2 1.5 0.2 0.7 0.4 1.3l3 8.2 4.4-8q0.3-0.6 0.4-1.1 0.2-0.6 0.3-1.1l4.2 0.4-0.1 0.5-0.1 0.1q-0.6 0.1-1 0.2-0.3 0.2-0.6 0.5-0.3 0.3-0.3 0.8z"/><path class="d" d="m120.9 26.1q-0.2 0.8-0.2 1.2 0 0.4 0.2 0.6 0.2 0.1 0.7 0.4 0.6 0.2 1 0.5l-0.2 0.5-6.6-1.8 0.2-0.5q0.3 0 0.5 0 0.3 0 0.7 0 0.4 0.1 0.7 0 0.2 0 0.4-0.4 0.3-0.3 0.5-1.2l2.1-7.4q0.2-0.8 0.2-1.3-0.1-0.4-0.3-0.6-0.2-0.1-0.6-0.3-0.3-0.2-0.5-0.3-0.2-0.1-0.5-0.4l0.2-0.5 6.5 1.9-0.1 0.5q-0.2 0-0.6 0-0.6 0-1 0-0.3 0.1-0.6 0.3-0.3 0.2-0.5 0.7z"/><path class="d" d="m136.6 20.4q1.7 0.8 2.8 2.2 1.1 1.5 1.3 3.3 0.2 1.9-0.6 3.7-0.9 1.9-2.5 2.9-1.5 1-3.4 1.1-1.8 0.1-3.6-0.7-1.7-0.8-2.7-2.2-1.1-1.4-1.4-3.2-0.2-1.8 0.7-3.7 0.9-2 2.5-3 1.6-1.1 3.4-1.1 1.8-0.1 3.5 0.7zm-5.2 12q1.1 0.5 2.3 0.3 1.2-0.2 2.2-1.1 1-0.8 1.7-2.4 0.8-1.7 0.9-3.4 0.1-1.7-0.6-3-0.7-1.2-2-1.9-1.1-0.5-2.2-0.3-1.2 0.1-2.2 1-1.1 0.9-1.8 2.5-0.8 1.7-0.9 3.4 0 1.7 0.6 3 0.7 1.3 2 1.9z"/><path class="d" d="m147.7 29.1q0-0.5-0.1-0.9-0.1-0.3-0.2-0.6-0.2-0.3-0.4-0.7-0.3-0.4-0.4-0.6l0.3-0.5 2.8 2.2 1.7 13.8 3.9-5.2q0.6-0.8 0.8-1.6 0.1-0.3 0.1-0.6-0.1-0.2-0.2-0.4-0.1-0.2-0.4-0.5 0-0.1-0.2-0.3-0.1-0.2-0.2-0.4 0.2-0.2 0.3-0.4l4.4 3.3-0.4 0.4q-0.3-0.1-0.6-0.2-0.8-0.1-1.2-0.1-0.3-0.1-0.7 0.2-0.4 0.3-1 1.2-0.3 0.4-0.9 1.2-0.5 0.6-1.2 1.5-0.8 0.9-1.7 2.2-0.4 0.5-1.1 1.7-0.6 0.9-1 1.4-0.2-0.1-0.4-0.3-0.3-0.2-0.4-0.4-0.1-1.1-0.2-2.5l-1.3-11.7-4.4 5.7q-0.4 0.6-0.6 1.2-0.2 0.4-0.1 0.6 0 0.3 0.2 0.5 0.1 0.3 0.4 0.6 0.4 0.4 0.6 0.7-0.2 0.2-0.4 0.4l-4.6-3.5q0.1-0.1 0.3-0.4l0.5 0.2q0.6 0.2 1 0.3 0.4 0.2 0.8 0 0.5-0.1 0.9-0.5z"/><path class="d" d="m50.1 213.6q-0.2 0-0.4 0-0.2-0.7-0.6-1.2-0.5-0.5-1.1-0.5-0.5 0-0.8 0.3-0.2 0.2-0.2 0.6 0 0.3 0.2 0.6 0.2 0.2 0.5 0.4 0.4 0.2 0.9 0.5 0.1 0.1 0.3 0.2 0.9 0.4 1.2 0.9 0.4 0.4 0.4 1.1 0 0.6-0.3 1-0.3 0.4-0.8 0.7-0.5 0.2-1.2 0.2-0.6 0-1.2-0.2-0.7-0.1-1-0.3v-1.8q0.2-0.1 0.3-0.1 0.2 0.8 0.6 1.4 0.5 0.5 1.2 0.5 0.5 0 0.9-0.3 0.4-0.3 0.4-0.7 0-0.3-0.2-0.5-0.2-0.2-0.4-0.4-0.3-0.1-0.8-0.4-0.7-0.4-1-0.6-0.6-0.3-0.9-0.8-0.3-0.4-0.3-1 0-0.6 0.3-0.9 0.3-0.4 0.8-0.7 0.5-0.2 1.1-0.2 0.6 0 1.1 0.2 0.5 0.1 0.9 0.4z"/><path class="d" d="m56.7 213.8q0-0.6-0.1-1-0.1-0.3-0.4-0.6-0.3-0.2-0.8-0.2-0.3 0-0.5 0.1-0.3 0.1-0.5 0.2-0.2 0.1-0.2 0.3 0 0.1 0 0.2 0 0.1 0.1 0.2 0.1 0.1 0.1 0.2 0 0.1 0 0.2 0 0.3-0.2 0.5-0.1 0.1-0.4 0.1-0.4 0-0.6-0.2-0.2-0.3-0.2-0.7 0-0.6 0.4-0.9 0.4-0.4 1.1-0.6 0.6-0.2 1.2-0.2 1 0 1.5 0.4 0.5 0.3 0.7 0.8 0.2 0.6 0.2 1.7l-0.1 0.3q0 0.2 0 0.6 0 0.3 0 0.7 0 1.6 0.4 1.6 0.2 0 0.6-0.5l0.3 0.3q-0.3 0.6-0.6 0.8-0.4 0.3-0.9 0.3-0.5 0-0.8-0.3-0.3-0.3-0.3-0.8-0.5 0.5-1.1 0.8-0.5 0.3-1.2 0.3-0.4 0-0.8-0.2-0.4-0.2-0.6-0.5-0.3-0.3-0.3-0.8 0-0.7 0.6-1.1 0.5-0.5 1.2-0.7 0.7-0.3 1.7-0.5 0.1 0 0.5-0.1zm0 1.1q-0.1 0-0.3 0.1-0.6 0.2-1.1 0.4-0.4 0.1-0.8 0.5-0.3 0.3-0.3 0.7 0 0.4 0.2 0.7 0.2 0.2 0.7 0.2 0.4 0 0.8-0.2 0.4-0.2 0.8-0.6z"/><path class="d" d="m63.9 218.3q-0.1 0.1-0.3 0.1-0.1 0-0.2-0.1l-2.2-5.4q-0.2-0.3-0.3-0.4-0.1-0.2-0.1-0.2-0.1-0.1-0.3-0.2-0.2 0-0.4-0.1v-0.4h3.3q0 0.1 0.1 0.2 0 0.1 0 0.2-0.5 0.2-0.7 0.3-0.3 0.1-0.3 0.4 0 0 0.1 0.2l1.5 3.6 1.2-3q0.2-0.5 0.2-0.8 0-0.3-0.2-0.4-0.2-0.1-0.7-0.2 0-0.1 0-0.2 0-0.1 0-0.2 0 0 0-0.1h2.7q0 0.2 0 0.4-0.1 0.1-0.3 0.1-0.2 0.1-0.3 0.2-0.1 0.1-0.3 0.3-0.1 0.2-0.3 0.5z"/><path class="d" d="m70.3 214.4q0 0 0 0.2 0 0.9 0.3 1.5 0.3 0.6 0.9 0.9 0.5 0.3 1.2 0.3 1 0 1.8-0.5l0.2 0.2q-0.1 0.4-0.6 0.8-0.4 0.3-0.9 0.4-0.5 0.2-1 0.2-0.9 0-1.7-0.5-0.7-0.4-1.1-1.2-0.4-0.7-0.4-1.8 0-1 0.4-1.8 0.5-0.8 1.2-1.2 0.8-0.5 1.6-0.5 0.7 0 1.2 0.3 0.6 0.3 1 0.8 0.3 0.5 0.4 1.2 0.1 0.3 0.1 0.6v0.1zm2.6-0.5q0.4 0 0.6-0.1-0.1-0.9-0.4-1.4-0.4-0.5-1-0.5-0.5 0-0.9 0.3-0.3 0.3-0.6 0.8-0.2 0.4-0.3 1z"/><path class="d" d="m79.8 218.4q-0.9 0-1.3-0.5-0.5-0.4-0.7-1.1-0.1-0.7-0.1-1.7v-2.2q-0.1-0.2-0.4-0.3-0.3-0.1-0.5-0.2-0.3-0.1-0.3-0.1v-0.3l2.1-0.5h0.4v3.5q0 0.9 0.1 1.5 0.1 0.5 0.4 0.8 0.3 0.2 0.8 0.2 1 0 1.9-0.9v-3.7q-0.1-0.2-0.3-0.3-0.3-0.1-0.6-0.2-0.2-0.1-0.2-0.1v-0.3l2-0.5h0.5v5.3q0 0.3 0.1 0.4 0.2 0.2 0.4 0.3 0.2 0 0.6 0.1 0 0.1 0 0.2 0 0.1 0 0.2l-2.4 0.3v-1.1q-1.1 1.2-2.5 1.2z"/><path class="d" d="m88.6 216.5q0 0.4 0.1 0.6 0.1 0.3 0.3 0.5 0.3 0.2 0.9 0.3v0.3h-3.8q0 0 0-0.2 0-0.1 0-0.2h0.3q0.3-0.1 0.5-0.2 0.2-0.1 0.3-0.3 0-0.3 0-0.7v-3.7q0-0.2-0.3-0.3-0.3-0.1-0.5-0.2-0.3-0.1-0.3-0.1v-0.3l1.9-0.5h0.5l0.1 1.4q0.4-0.8 0.8-1.1 0.5-0.3 1.1-0.3 0.2 0 0.5 0.1 0.2 0.1 0.4 0.3 0.1 0.2 0.1 0.4 0 0.1-0.1 0.3 0 0.2-0.2 0.4-0.1 0.2-0.3 0.2-0.3 0-0.4-0.1-0.1-0.2-0.3-0.4-0.1-0.1-0.2-0.2-0.1-0.1-0.2-0.1-0.2 0-0.4 0.2-0.2 0.1-0.3 0.3-0.2 0.2-0.4 0.5l-0.1 0.2z"/><path class="d" d="m97.5 213.6q-0.1 0-0.3 0-0.2-0.7-0.7-1.2-0.4-0.5-1-0.5-0.5 0-0.8 0.3-0.2 0.2-0.2 0.6 0 0.3 0.2 0.6 0.2 0.2 0.5 0.4 0.3 0.2 0.8 0.5 0.2 0.1 0.4 0.2 0.9 0.4 1.2 0.9 0.4 0.4 0.4 1.1 0 0.6-0.3 1-0.3 0.4-0.8 0.7-0.6 0.2-1.2 0.2-0.6 0-1.3-0.2-0.6-0.1-1-0.3v-1.8q0.3-0.1 0.4-0.1 0.2 0.8 0.6 1.4 0.4 0.5 1.2 0.5 0.5 0 0.9-0.3 0.3-0.3 0.3-0.7 0-0.3-0.1-0.5-0.2-0.2-0.4-0.4-0.3-0.1-0.8-0.4-0.7-0.4-1-0.6-0.6-0.3-0.9-0.8-0.3-0.4-0.3-1 0-0.6 0.3-0.9 0.3-0.4 0.8-0.7 0.5-0.2 1.1-0.2 0.6 0 1.1 0.2 0.5 0.1 0.9 0.4z"/><path class="d" d="m109.9 209.6q-0.1-0.1-0.4-0.3-0.2-0.1-0.5-0.2-0.3-0.1-0.3-0.1v-0.3l2.1-0.5 0.5-0.1v8.7q0 0.4 0.4 0.6 0.3 0.2 0.8 0.2v0.4l-2 0.3h-0.5v-1.1q-0.6 0.6-1.2 0.9-0.5 0.3-1.2 0.3-0.8 0-1.5-0.4-0.7-0.4-1.1-1.1-0.4-0.8-0.4-1.7 0-1.1 0.5-1.9 0.4-0.9 1.2-1.4 0.8-0.4 1.7-0.4 0.5 0 0.9 0.1 0.4 0.1 1 0.4zm0 4.9q0-0.7-0.1-1.2-0.1-0.4-0.5-0.7-0.3-0.3-0.7-0.4-0.3-0.2-0.6-0.2-0.6 0-1.1 0.4-0.4 0.4-0.6 1-0.3 0.6-0.3 1.3 0 0.7 0.3 1.4 0.2 0.6 0.7 1 0.5 0.4 1.2 0.4 0.5 0 1-0.3 0.4-0.2 0.7-0.6z"/><path class="d" d="m117.1 218.4q-0.9 0-1.4-0.5-0.4-0.4-0.6-1.1-0.2-0.7-0.2-1.7v-2.2q-0.1-0.2-0.3-0.3-0.3-0.1-0.6-0.2-0.3-0.1-0.3-0.1l0.1-0.3 2-0.5h0.5v3.5q0 0.9 0.1 1.5 0.1 0.5 0.4 0.8 0.3 0.2 0.8 0.2 1 0 1.9-0.9v-3.7q-0.1-0.2-0.4-0.3-0.2-0.1-0.5-0.2-0.3-0.1-0.3-0.1v-0.3l2.1-0.5h0.4v5.3q0 0.3 0.2 0.4 0.1 0.2 0.4 0.3 0.2 0 0.6 0.1 0 0.1 0 0.2 0 0.1 0 0.2l-2.4 0.3-0.1-1.1q-1.1 1.2-2.4 1.2z"/><path class="d" d="m132.5 213.6q-0.2 0-0.4 0-0.2-0.7-0.6-1.2-0.5-0.5-1.1-0.5-0.5 0-0.8 0.3-0.2 0.2-0.2 0.6 0 0.3 0.2 0.6 0.2 0.2 0.5 0.4 0.4 0.2 0.9 0.5 0.1 0.1 0.3 0.2 0.9 0.4 1.3 0.9 0.3 0.4 0.3 1.1 0 0.6-0.3 1-0.3 0.4-0.8 0.7-0.5 0.2-1.2 0.2-0.6 0-1.2-0.2-0.6-0.1-1-0.3v-1.8q0.2-0.1 0.4-0.1 0.1 0.8 0.5 1.4 0.5 0.5 1.2 0.5 0.5 0 0.9-0.3 0.4-0.3 0.4-0.7 0-0.3-0.2-0.5-0.2-0.2-0.4-0.4-0.3-0.1-0.8-0.4-0.7-0.4-1-0.6-0.6-0.3-0.9-0.8-0.2-0.4-0.2-1 0-0.6 0.2-0.9 0.3-0.4 0.8-0.7 0.5-0.2 1.1-0.2 0.6 0 1.1 0.2 0.5 0.1 0.9 0.4z"/><path class="d" d="m138.1 218.4q-0.9 0-1.4-0.5-0.5-0.4-0.6-1.1-0.2-0.7-0.2-1.7v-2.2q-0.1-0.2-0.4-0.3-0.2-0.1-0.5-0.2-0.3-0.1-0.3-0.1v-0.3l2.1-0.5h0.4v3.5q0 0.9 0.1 1.5 0.2 0.5 0.5 0.8 0.2 0.2 0.7 0.2 1.1 0 2-0.9v-3.7q-0.2-0.2-0.4-0.3-0.3-0.1-0.5-0.2-0.3-0.1-0.3-0.1v-0.3l2.1-0.5h0.4v5.3q0 0.3 0.2 0.4 0.1 0.2 0.3 0.3 0.3 0 0.7 0.1 0 0.1 0 0.2-0.1 0.1-0.1 0.2l-2.3 0.3-0.1-1.1q-1.1 1.2-2.4 1.2z"/><path class="d" d="m150 209.6q-0.1-0.1-0.3-0.3-0.3-0.1-0.6-0.2-0.2-0.1-0.3-0.1v-0.3l2.1-0.5 0.5-0.1v8.7q0 0.4 0.4 0.6 0.4 0.2 0.8 0.2v0.4l-2 0.3h-0.5v-1.1q-0.5 0.6-1.1 0.9-0.6 0.3-1.2 0.3-0.9 0-1.5-0.4-0.7-0.4-1.1-1.1-0.4-0.8-0.4-1.7 0-1.1 0.4-1.9 0.5-0.9 1.2-1.4 0.8-0.4 1.8-0.4 0.4 0 0.8 0.1 0.5 0.1 1 0.4zm0 4.9q0-0.7-0.1-1.2-0.1-0.4-0.5-0.7-0.3-0.3-0.6-0.4-0.4-0.2-0.7-0.2-0.6 0-1 0.4-0.5 0.4-0.7 1-0.3 0.6-0.3 1.3 0 0.7 0.3 1.4 0.2 0.6 0.7 1 0.5 0.4 1.2 0.4 0.6 0 1-0.3 0.4-0.2 0.7-0.6z"/></svg>